<?xml version="1.0" encoding="iso-8859-1"?>
<!-- Generator: Adobe Illustrator 17.0.0, SVG Export Plug-In . SVG Version: 6.00 Build 0)  -->
<!DOCTYPE svg PUBLIC "-//W3C//DTD SVG 1.1//EN" "http://www.w3.org/Graphics/SVG/1.1/DTD/svg11.dtd">
<svg version="1.1" xmlns="http://www.w3.org/2000/svg" xmlns:xlink="http://www.w3.org/1999/xlink" x="0px" y="0px" width="34px"
	 height="29.732px" viewBox="0 0 34 29.732" style="enable-background:new 0 0 34 29.732;" xml:space="preserve">
<g id="friends">
	<g>
		<g>
			<g>
				<path style="fill:#DBDCF0;" d="M18.961,7.732c0.881,0,2.764,4.737,3.012,7.641l-1.42,0.833l-0.463,0.293l-0.079,0.296
					l-1.87,11.937h-2.238c-0.377-3-1.744-10.889-1.919-11.922l-0.085-0.378l-0.454-0.166l-1.435-0.932
					c0.127-3.269,1.24-7.603,2.988-7.603h4 M19,6.732c-3,0-1,0-4,0s-4,6.245-4,9.245l2,0.877c0,0,1.943,11.877,2,12.877h4l2-12.755
					l2-1.123C23,12.854,20.683,6.732,19,6.732L19,6.732z"/>
			</g>
			<g>
				<circle style="fill:#DBDCF0;" cx="17" cy="2.268" r="2"/>
			</g>
		</g>
		<g>
			<g>
				<path style="fill:#DBDCF0;" d="M6.59,9.732c0.717,0,2.143,3.537,2.377,5.824l-1.081,0.503l-0.463,0.213l-0.079,0.493
					l-1.536,9.967H4.234c-0.34-3-1.438-9.148-1.581-9.992l-0.085-0.496l-0.454-0.225l-1.1-0.474c0.125-2.848,1.094-5.813,2.32-5.813
					H7 M6.667,8.732c-2.5,0-0.833,0-3.333,0S0,13.657,0,16.157l1.667,0.787c0,0,1.619,9.787,1.667,10.787h3.333l1.667-10.825
					L10,16.153C10,13.653,8.069,8.732,6.667,8.732L6.667,8.732z"/>
			</g>
			<g>
				<circle style="fill:#DBDCF0;" cx="5" cy="4.408" r="1.667"/>
			</g>
			<g>
				<path style="fill:#DBDCF0;" d="M30.59,9.732c0.717,0,2.143,3.537,2.377,5.824l-1.081,0.503l-0.463,0.213l-0.079,0.493
					l-1.536,9.967h-1.575c-0.34-3-1.438-9.148-1.581-9.992l-0.085-0.496l-0.454-0.225l-1.1-0.474
					c0.125-2.848,1.094-5.813,2.32-5.813H31 M30.667,8.732c-2.5,0-0.833,0-3.333,0S24,13.657,24,16.157l1.667,0.787
					c0,0,1.619,9.787,1.667,10.787h3.333l1.667-10.825L34,16.153C34,13.653,32.069,8.732,30.667,8.732L30.667,8.732z"/>
			</g>
			<g>
				<circle style="fill:#DBDCF0;" cx="29" cy="4.408" r="1.667"/>
			</g>
		</g>
	</g>
</g>
<g id="Layer_1">
</g>
</svg>
