<?xml version="1.0" encoding="iso-8859-1"?>
<!-- Generator: Adobe Illustrator 17.0.0, SVG Export Plug-In . SVG Version: 6.00 Build 0)  -->
<!DOCTYPE svg PUBLIC "-//W3C//DTD SVG 1.1//EN" "http://www.w3.org/Graphics/SVG/1.1/DTD/svg11.dtd">
<svg version="1.1" xmlns="http://www.w3.org/2000/svg" xmlns:xlink="http://www.w3.org/1999/xlink" x="0px" y="0px" width="9.547px"
	 height="18.573px" viewBox="0 0 9.547 18.573" style="enable-background:new 0 0 9.547 18.573;" xml:space="preserve">
<g id="wellness">
	<g>
		<g>
			<path style="fill:#DBDCF0;" d="M0.7,16.588C-2.04,11.92,4.129,0.484,4.393,0l0.879,0.479C5.209,0.592-0.892,11.9,1.563,16.083
				L0.7,16.588z"/>
		</g>
		<g>
			<path style="fill:#DBDCF0;" d="M4.833,18.573v-1c0.607,0,1.146-0.075,1.601-0.225c0.774-0.253,1.321-0.75,1.672-1.52
				C9.261,13.288,7.966,8.35,6.369,4.577l-0.087-0.2l0.92-0.393l0.086,0.198c0.817,1.93,3.352,8.492,1.728,12.06
				c-0.466,1.024-1.23,1.716-2.271,2.057C6.189,18.481,5.545,18.573,4.833,18.573z"/>
		</g>
	</g>
</g>
<g id="Layer_1">
</g>
</svg>
