<?xml version="1.0" encoding="iso-8859-1"?>
<!-- Generator: Adobe Illustrator 17.0.0, SVG Export Plug-In . SVG Version: 6.00 Build 0)  -->
<!DOCTYPE svg PUBLIC "-//W3C//DTD SVG 1.1//EN" "http://www.w3.org/Graphics/SVG/1.1/DTD/svg11.dtd">
<svg version="1.1" xmlns="http://www.w3.org/2000/svg" xmlns:xlink="http://www.w3.org/1999/xlink" x="0px" y="0px" width="31px"
	 height="29.732px" viewBox="0 0 31 29.732" style="enable-background:new 0 0 31 29.732;" xml:space="preserve">
<g id="family">
	<g>
		<g>
			<path style="fill:#DBDCF0;" d="M7.961,7.732c0.881,0,2.764,4.737,3.012,7.641l-1.42,0.833L9.09,16.498l-0.079,0.296l-1.87,11.937
				H4.905c-0.377-3-1.744-10.889-1.919-11.922l-0.085-0.378l-0.454-0.166l-1.435-0.932C1.139,12.066,2.252,7.732,4,7.732h4 M8,6.732
				c-3,0-1,0-4,0s-4,6.245-4,9.245l2,0.877c0,0,1.943,11.877,2,12.877h4l2-12.755l2-1.123C12,12.854,9.683,6.732,8,6.732L8,6.732z"
				/>
		</g>
		<g>
			<path style="fill:#DBDCF0;" d="M17.845,16.732c0.41,0,1.046,2.44,1.142,4.052l-0.695,0.713L18.05,21.75l-0.042,0.101
				l-0.877,6.881h-1.219c-0.232-2-0.838-6.293-0.92-6.89l-0.046-0.211l-0.238-0.177l-0.699-0.705
				c0.085-2.049,0.798-4.017,1.499-4.017H18 M18.014,15.732c-1.88,0-0.627,0-2.507,0S13,19.305,13,21.186l1,0.773
				c0,0,0.964,7.773,1,7.773h3.014L19,21.977l1-0.914C20,19.182,19.069,15.732,18.014,15.732L18.014,15.732z"/>
		</g>
		<g>
			<circle style="fill:#DBDCF0;" cx="6" cy="2.268" r="2"/>
		</g>
		<g>
			<path style="fill:#DBDCF0;" d="M26,7.723c0.72,0,1.492,0.406,2.293,1.207c0.795,0.795,0.691,1.101,0.302,2.24
				C28.33,11.945,28,12.911,28,14.223l0,0.414l0.292,0.293c0.849,0.85,1.663,1.706,1.707,2.048c0,2.16-1.82,8.755-2.747,11.755
				h-2.402c-0.177,0-0.507-1.759-0.971-3.408c-0.794-2.822-1.881-6.563-1.881-8.207c0.045-0.359,0.86-1.399,1.708-2.249L24,14.636
				v-0.414c0-1.312-0.33-2.277-0.595-3.053c-0.389-1.139-0.494-1.445,0.302-2.24C24.508,8.129,25.28,7.723,26,7.723 M26,6.723
				c-1,0-2,0.5-3,1.5c-2,2,0,3,0,6c0,0-2,1.755-2,2.755c0,3,2.943,11.755,3,12.755h4c0,0,3-9.755,3-12.755c0-1-2-2.877-2-2.877
				c0-3,2-3.939,0-5.939C28,7.161,27,6.723,26,6.723L26,6.723z"/>
		</g>
		<g>
			<circle style="fill:#DBDCF0;" cx="26" cy="2.268" r="2"/>
		</g>
		<circle style="fill:#DBDCF0;" cx="16.5" cy="13.723" r="1.5"/>
	</g>
</g>
<g id="Layer_1">
</g>
</svg>
