<?xml version="1.0" encoding="iso-8859-1"?>
<!-- Generator: Adobe Illustrator 17.0.0, SVG Export Plug-In . SVG Version: 6.00 Build 0)  -->
<!DOCTYPE svg PUBLIC "-//W3C//DTD SVG 1.1//EN" "http://www.w3.org/Graphics/SVG/1.1/DTD/svg11.dtd">
<svg version="1.1" xmlns="http://www.w3.org/2000/svg" xmlns:xlink="http://www.w3.org/1999/xlink" x="0px" y="0px"
	 width="14.405px" height="20.223px" viewBox="0 0 14.405 20.223" style="enable-background:new 0 0 14.405 20.223;"
	 xml:space="preserve">
<g id="seasonal">
	<g>
		<g>
			<path style="fill:#DBDCF0;" d="M3.125,13.358C2.05,11.602,1.624,9.54,2.015,7.977c0.488-1.954,2.368-2.403,4.357-2.879
				c1.324-0.316,2.693-0.644,3.851-1.416l0.555,0.832C9.472,5.385,7.949,5.749,6.605,6.07C4.572,6.557,3.31,6.921,2.985,8.219
				C2.657,9.531,3.038,11.3,3.979,12.836L3.125,13.358z"/>
		</g>
		<g>
			<path style="fill:#DBDCF0;" d="M7.469,16.333c-0.807,0-1.634-0.285-2.402-0.83l0.578-0.816c0.649,0.461,1.301,0.67,1.951,0.644
				c0.649-0.033,1.255-0.529,2.093-1.216l0.499-0.406c4.708-3.767,2.842-13.414,2.822-13.511L13.99,0
				c0.084,0.42,2,10.346-3.178,14.489l-0.491,0.398c-0.948,0.777-1.697,1.391-2.674,1.44C7.588,16.332,7.528,16.333,7.469,16.333z"
				/>
		</g>
		<g>
			<path style="fill:#DBDCF0;" d="M1,20.223H0c0-3.777,3.142-8.532,6.342-9.6l0.316,0.949C3.908,12.489,1,16.936,1,20.223z"/>
		</g>
	</g>
</g>
<g id="Layer_1">
</g>
</svg>
