<?xml version="1.0" encoding="iso-8859-1"?>
<!-- Generator: Adobe Illustrator 17.0.2, SVG Export Plug-In . SVG Version: 6.00 Build 0)  -->
<!DOCTYPE svg PUBLIC "-//W3C//DTD SVG 1.1//EN" "http://www.w3.org/Graphics/SVG/1.1/DTD/svg11.dtd">
<svg version="1.1" xmlns="http://www.w3.org/2000/svg" xmlns:xlink="http://www.w3.org/1999/xlink" x="0px" y="0px" width="18px"
	 height="18px" viewBox="0 0 18 18" style="enable-background:new 0 0 18 18;" xml:space="preserve">
<g id="facebook">
	<g>
		<path style="fill:#F1F9FC;" d="M18,1.125v15.75c0,0.305-0.111,0.568-0.334,0.791C17.444,17.889,17.18,18,16.875,18h-4.5v-6.997
			h2.25l0.378-2.592h-2.628V6.372c0-0.375,0.095-0.662,0.286-0.862c0.19-0.199,0.47-0.299,0.84-0.299h1.688V2.874
			c-0.504-0.082-1.12-0.123-1.846-0.123c-1.207,0-2.129,0.307-2.764,0.918C9.942,4.281,9.624,5.115,9.624,6.17v2.241h-2.25v2.592
			h2.25V18H1.125c-0.305,0-0.569-0.111-0.791-0.334C0.111,17.443,0,17.18,0,16.875V1.125C0,0.82,0.111,0.557,0.334,0.334
			C0.556,0.111,0.82,0,1.125,0h15.75c0.305,0,0.569,0.111,0.791,0.334C17.889,0.557,18,0.82,18,1.125z"/>
	</g>
</g>
<g id="Layer_1">
</g>
</svg>
