<?xml version="1.0" encoding="iso-8859-1"?>
<!-- Generator: Adobe Illustrator 17.0.2, SVG Export Plug-In . SVG Version: 6.00 Build 0)  -->
<!DOCTYPE svg PUBLIC "-//W3C//DTD SVG 1.1//EN" "http://www.w3.org/Graphics/SVG/1.1/DTD/svg11.dtd">
<svg version="1.1" xmlns="http://www.w3.org/2000/svg" xmlns:xlink="http://www.w3.org/1999/xlink" x="0px" y="0px" width="52px"
	 height="42px" viewBox="0 0 52 42" style="enable-background:new 0 0 52 42;" xml:space="preserve">
<g id="home-logbook-white">
	<g>
		<path style="fill:#F1F9FC;" d="M48.905,41H3.095C1.389,41,0,39.598,0,37.875V4.125C0,2.402,1.389,1,3.095,1h45.81
			C50.611,1,52,2.402,52,4.125v33.75C52,39.598,50.611,41,48.905,41z M3.095,3.5c-0.336,0-0.619,0.286-0.619,0.625v33.75
			c0,0.339,0.284,0.625,0.619,0.625h45.81c0.336,0,0.619-0.286,0.619-0.625V4.125c0-0.339-0.284-0.625-0.619-0.625H3.095z"/>
	</g>
	<g>
		<rect x="25" y="1.875" style="fill:#F1F9FC;" width="2" height="38"/>
	</g>
	<g>
		<rect x="5.845" style="fill:#F1F9FC;" width="4" height="42"/>
	</g>
	<g>
		<rect x="32.381" y="7.875" style="fill:#F1F9FC;" width="12" height="1.238"/>
	</g>
	<g>
		<rect x="32.381" y="14.065" style="fill:#F1F9FC;" width="12" height="1.238"/>
	</g>
	<g>
		<rect x="32.381" y="20.256" style="fill:#F1F9FC;" width="12" height="1.238"/>
	</g>
	<g>
		<rect x="32.381" y="26.446" style="fill:#F1F9FC;" width="12" height="1.238"/>
	</g>
	<g>
		<rect x="32.381" y="32.637" style="fill:#F1F9FC;" width="12" height="1.238"/>
	</g>
</g>
<g id="Layer_1">
</g>
</svg>
