<?xml version="1.0" encoding="iso-8859-1"?>
<!-- Generator: Adobe Illustrator 17.0.2, SVG Export Plug-In . SVG Version: 6.00 Build 0)  -->
<!DOCTYPE svg PUBLIC "-//W3C//DTD SVG 1.1//EN" "http://www.w3.org/Graphics/SVG/1.1/DTD/svg11.dtd">
<svg version="1.1" xmlns="http://www.w3.org/2000/svg" xmlns:xlink="http://www.w3.org/1999/xlink" x="0px" y="0px"
	 width="35.751px" height="60px" viewBox="0 0 35.751 60" style="enable-background:new 0 0 35.751 60;" xml:space="preserve">
<g id="home-setup-white">
	<g>
		<path style="fill:#F1F9FC;" d="M35.463,53.049l0.288-0.25l-0.057-0.537c-0.935-8.851-4.654-14.68-7.116-18.538
			c-0.64-1.003-1.192-1.868-1.615-2.647c-0.618-1.138-0.369-1.832-0.08-2.636c0.228-0.634,0.486-1.354,0.158-2.147
			c-0.316-0.764-1.102-2.01-2.039-3.247c-0.083-0.109-0.165-0.219-0.25-0.328c-0.273-0.349-0.553-0.69-0.839-1.022
			c-0.002-0.002-0.004-0.004-0.006-0.006c-0.284-0.33-0.573-0.649-0.865-0.958l0,0c-0.543-0.574-1.096-1.11-1.647-1.588
			c-0.392-0.34-0.833-0.613-1.304-0.823c0,0,0,0-0.001,0c-0.203-0.091-0.411-0.171-0.624-0.236c-0.215-0.067-0.434-0.12-0.658-0.158
			l-0.176,1.045l0.175-1.045c-0.141-0.024-0.282-0.04-0.423-0.051c-0.137-0.011-0.273-0.016-0.409-0.018c0,0,0,0-0.001,0
			c-0.033,0-0.067-0.004-0.1-0.003L12.136,5.223L9.878,0.254L9.217,0.01l1.631,23.035l0.028,0.399l0.045,0.638l1.095,0.95v0
			l2.437,2.114c0.698,0.605,1.406,1.373,2.147,2.314v0c0.157,0.199,0.313,0.395,0.473,0.61h0c0.298,0.4,0.579,0.802,0.85,1.199v0
			c0.409,0.597,0.791,1.182,1.142,1.723c0.831,1.279,1.432,2.204,2.001,2.697c0.414,0.359,0.771,0.628,1.116,0.887
			c0.699,0.526,1.423,1.069,2.815,2.518c3.625,3.771,5.825,16.781,5.968,18.797c0.047,0.66,0.365,1.24,0.897,1.634
			c0.464,0.344,1.042,0.51,1.628,0.469c0.623-0.044,1.182-0.32,1.579-0.778c0.012-0.013,0.023-0.027,0.034-0.041
			c0.296-0.357,0.634-0.994,0.563-1.993l-0.265-3.736C35.388,53.234,35.437,53.102,35.463,53.049z M13.924,19.675
			c-0.497,0.573-0.846,1.224-1.056,1.906L12.06,10.177l3.697,8.137C15.059,18.628,14.431,19.091,13.924,19.675z M33.473,57.825
			c-0.04,0.041-0.072,0.052-0.131,0.056c-0.077,0.005-0.162-0.017-0.216-0.058c-0.036-0.027-0.043-0.047-0.046-0.082
			c-0.104-1.463-2.222-15.608-6.554-20.115c-1.51-1.571-2.339-2.194-3.069-2.743c-0.33-0.248-0.643-0.483-1.001-0.794
			c-0.343-0.298-0.96-1.247-1.613-2.251c-0.602-0.926-1.283-1.975-2.069-3.031l-0.85,0.632l0.85-0.632
			c-1.01-1.358-1.969-2.425-2.932-3.26c-1.324-1.148-1.466-3.159-0.318-4.483c0.482-0.555,1.145-0.928,1.868-1.051
			c0.344-0.058,0.702-0.056,1.063,0.004v0c0.578,0.098,1.115,0.35,1.552,0.729c1.043,0.905,2.106,2.039,3.074,3.278
			c1.133,1.452,1.818,2.638,1.994,3.055c0.009,0.102-0.109,0.43-0.187,0.647c-0.342,0.952-0.858,2.391,0.213,4.363
			c0.458,0.844,1.029,1.739,1.69,2.776c2.461,3.857,5.818,9.119,6.757,17.277c-0.156,0.328-0.304,0.818-0.259,1.456l0.265,3.736
			C33.574,57.599,33.525,57.762,33.473,57.825z"/>
		<path style="fill:#F1F9FC;" d="M16.224,21.671c-0.813,0.938-0.713,2.362,0.225,3.176c0.938,0.813,2.362,0.712,3.176-0.225
			s0.713-2.362-0.225-3.176C18.462,20.632,17.038,20.733,16.224,21.671z M18.825,23.927c-0.431,0.496-1.185,0.55-1.681,0.119
			c-0.496-0.43-0.55-1.185-0.119-1.681c0.431-0.496,1.185-0.55,1.681-0.119S19.256,23.43,18.825,23.927z"/>
		<path style="fill:#F1F9FC;" d="M15.351,31.305c-0.117,0.179-0.235,0.359-0.346,0.531c-0.653,1.005-1.271,1.953-1.614,2.251
			c-0.359,0.311-0.671,0.545-1.002,0.794c-0.731,0.549-1.559,1.171-3.07,2.742c-4.327,4.502-6.455,18.65-6.559,20.113
			c-0.009,0.118-0.198,0.144-0.262,0.14c-0.06-0.004-0.104-0.023-0.131-0.056c-0.052-0.062-0.101-0.225-0.082-0.493l0.266-3.736
			c0.045-0.637-0.103-1.127-0.259-1.455c0.941-8.158,4.3-13.419,6.762-17.276c0.661-1.036,1.233-1.931,1.691-2.775
			c1.072-1.972,0.555-3.411,0.214-4.363c-0.078-0.217-0.195-0.545-0.194-0.62c0.027-0.066,0.069-0.152,0.118-0.249l-1.35-1.171
			l-0.289-0.251c-0.184,0.323-0.336,0.617-0.436,0.859c-0.329,0.793-0.071,1.513,0.157,2.147c0.288,0.804,0.537,1.498-0.081,2.636
			c-0.423,0.779-0.976,1.644-1.615,2.646c-2.462,3.857-6.184,9.686-7.121,18.537L0,52.701l0.378,0.341
			c0.026,0.053,0.075,0.185,0.06,0.398l-0.266,3.737c-0.071,1,0.267,1.636,0.562,1.993c0.399,0.482,0.972,0.773,1.614,0.819
			c0.8,0.057,1.521-0.257,1.987-0.794c0.307-0.353,0.503-0.803,0.539-1.309c0.144-2.016,2.344-15.035,5.973-18.795
			c1.392-1.448,2.116-1.991,2.815-2.517c0.345-0.259,0.703-0.527,1.117-0.887c0.54-0.468,1.111-1.328,1.878-2.507
			c-0.4-0.605-0.827-1.233-1.283-1.846C15.366,31.324,15.359,31.316,15.351,31.305z"/>
		<path style="fill:#F1F9FC;" d="M20.959,16.414l2.835-6.234l-0.554,7.782c0.669,0.613,1.334,1.291,1.98,2.02L26.642,0l-0.658,0.242
			l-2.265,4.982l-4.629,10.182l0.207,0.455L20.959,16.414z"/>
	</g>
</g>
<g id="Layer_1">
</g>
</svg>
