<?xml version="1.0" encoding="iso-8859-1"?>
<!-- Generator: Adobe Illustrator 17.0.2, SVG Export Plug-In . SVG Version: 6.00 Build 0)  -->
<!DOCTYPE svg PUBLIC "-//W3C//DTD SVG 1.1//EN" "http://www.w3.org/Graphics/SVG/1.1/DTD/svg11.dtd">
<svg version="1.1" id="Layer_1" xmlns="http://www.w3.org/2000/svg" xmlns:xlink="http://www.w3.org/1999/xlink" x="0px" y="0px"
	 width="52px" height="55px" viewBox="0 0 52 55" style="enable-background:new 0 0 52 55;" xml:space="preserve">
<g>
	<path style="fill:none;" d="M30.337,46.307c-0.723,0.015-1.341,0.603-1.359,1.328c0,0-0.002,0.019-0.002,0.029
		c0,0.368,0.147,0.7,0.385,0.944c0.842-0.322,1.648-0.717,2.409-1.177C31.126,47.328,30.582,46.893,30.337,46.307z"/>
	<path style="fill:none;" d="M28.492,47.929c-0.004-0.028-0.006-0.055-0.008-0.082c0-0.002,0.002-0.002,0.002-0.003
		c-0.002,0.001-0.007,0.002-0.007,0.003c0.003,0.028,0.007,0.055,0.011,0.082c0,0.001,0,0.002,0.001,0.002
		c-0.258,0.051-0.498,0.173-0.658,0.347c-0.313,0.237-0.432,0.567-0.442,0.934c0.497-0.115,0.985-0.256,1.463-0.42
		c-0.188-0.247-0.316-0.54-0.362-0.861C28.492,47.93,28.493,47.93,28.492,47.929z"/>
	<path style="fill:none;" d="M31.822,44.417h-0.007c-0.629,0-1.117,0.591-1.117,1.254c0,0.748,0.785,1.278,1.351,1.278v0.015
		c0.283-0.563,0.731-0.917,1.336-1.049C32.569,45.799,31.94,44.983,31.822,44.417z"/>
	<path style="fill:none;" d="M25.254,48.314C25.254,48.313,25.254,48.313,25.254,48.314c-0.566,0.01-1.236,0.58-1.268,1.292
		c0.819-0.005,1.591-0.076,2.374-0.207C25.867,49.207,25.537,48.81,25.254,48.314z"/>
	<path style="fill:none;" d="M35.163,43.281v0.014c0.283-0.568,0.84-1.008,1.453-1.135c0.037,0.006,0.178,0.002,0.219,0.002
		c-0.003,0.082,0.015,0.083,0.02,0.127c-0.001-0.044-0.007-0.138-0.004-0.138c-0.002,0-0.002,0-0.004,0
		c-0.039,0-0.084,0.008-0.123,0.003c-0.819-0.112-1.479-0.743-1.598-1.561c-0.26,0.05-0.518,0.172-0.679,0.347
		c-0.245,0.247-0.471,0.596-0.471,0.984c0,0.387,0.135,0.736,0.38,0.984C34.601,43.138,35.163,43.281,35.163,43.281z"/>
	<path style="fill:none;" d="M33.521,42.465c0.015,0.054-0.057,0.106-0.057,0.158v0.015c-0.566,0-1.259,0.566-1.259,1.314
		c0,0.742,0.674,1.314,1.413,1.314c0.002,0,0.002,0,0.004,0c0.152-0.283,0.498-0.702,0.825-0.918
		c0.245-0.139,0.512-0.181,0.802-0.202c-0.004-0.041-0.01-0.073-0.01-0.119c0-0.071-0.006-0.177,0.002-0.177
		c-0.002,0-0.002,0-0.004,0c-0.292,0-0.545-0.141-0.79-0.281c-0.327-0.207-0.633-0.557-0.789-0.943
		C33.636,42.576,33.537,42.519,33.521,42.465z"/>
	<path style="fill:none;" d="M25.276,47.811c0.011,0.134,0.038,0.262,0.077,0.386c-0.037-0.124-0.063-0.251-0.073-0.385
		c-0.004-0.05-0.007-0.098-0.007-0.148c0-0.011,0.001-0.029,0.001-0.029c0.002-0.082-0.008-0.123-0.001-0.182
		c0.041,0.002,0.111,0.002,0.111,0.002s-0.068-0.001-0.109-0.004c-0.716-0.048-1.306-0.502-1.574-1.134
		c-0.77,0.062-1.272,0.624-1.288,1.318c0,0-0.089,0.019-0.089,0.029c0,0.742,0.594,1.343,1.333,1.354
		C23.908,48.35,24.534,47.863,25.276,47.811z"/>
	<path style="fill:none;" d="M35.114,40.503c-0.028-0.004-0.055-0.009-0.081-0.014c0.026,0.005,0.052,0.011,0.078,0.015
		C35.113,40.503,35.114,40.503,35.114,40.503z"/>
	<path style="fill:none;" d="M35.766,43.945c0.316-0.392,0.613-0.799,0.89-1.222C36.144,42.909,35.784,43.383,35.766,43.945z"/>
	<path style="fill:none;" d="M19.035,43.994c0,0.74,0.544,1.341,1.28,1.355c0.153-0.407,0.498-0.745,0.825-0.961
		c0.245-0.139,0.518-0.225,0.809-0.246c0.002,0.022,0.004,0.044,0.007,0.065c0.016,0.152,0.048,0.298,0.101,0.437
		c-0.353,0.005-0.671,0.145-0.916,0.371c-0.245,0.248-0.425,0.597-0.425,0.984c0,0.388,0.181,0.736,0.426,0.984
		c0.245,0.18,0.439,0.307,0.706,0.354c-0.015,0.085-0.016,0.188-0.018,0.266c0.003-0.078,0.017-0.181,0.031-0.266
		c0.14-0.785,0.783-1.403,1.578-1.517c-0.001,0-0.003,0-0.004-0.001c-0.63-0.131-1.144-0.579-1.365-1.171
		c-0.051-0.139-0.086-0.281-0.102-0.433c-0.002-0.021-0.005-0.035-0.007-0.057c-0.004-0.049-0.002-0.081-0.002-0.131
		c0-0.071,0.013-0.177,0.02-0.177c-0.002,0-0.005,0-0.007,0c-0.292,0-0.586-0.141-0.831-0.281c-0.32-0.203-0.617-0.548-0.776-0.925
		C19.559,42.682,19.035,43.27,19.035,43.994z"/>
	<path style="fill:none;" d="M18.613,47.665c0-0.011,0.011-0.029,0.011-0.029c0.001-0.082,0.011-0.123,0.017-0.182
		c0.041,0.002,0.048,0.002,0.13,0.002c-0.082,0-0.091-0.002-0.132-0.004c-0.721-0.048-1.337-0.507-1.603-1.144
		c-0.575,0.009-1.078,0.38-1.272,0.896c0.584,0.376,1.194,0.713,1.83,1.007c0.284-0.227,0.634-0.371,1.015-0.398
		C18.608,47.762,18.613,47.715,18.613,47.665z"/>
	<path style="fill:none;" d="M20.213,46c0,0.048,0.008,0.094,0.012,0.142c-0.002-0.047-0.003-0.094-0.003-0.142
		c0-0.02,0.006-0.041,0.006-0.06C20.226,45.959,20.213,45.98,20.213,46z"/>
	<path style="fill:none;" d="M18.73,48.313c-0.044-0.119-0.091-0.242-0.111-0.371c0.019,0.128,0.064,0.251,0.109,0.371
		c-0.209,0.003-0.404,0.053-0.578,0.14c0.274,0.113,0.552,0.22,0.834,0.318c-0.102-0.14-0.186-0.293-0.247-0.457
		C18.735,48.313,18.73,48.313,18.73,48.313z"/>
	<path style="fill:none;" d="M21.139,47.65c0-0.006,0.023-0.011,0.036-0.016c-0.016-0.006-0.036-0.016-0.036-0.021
		c-0.488-0.269-0.797-0.733-0.896-1.279c-0.001-0.002,0.001-0.003,0.001-0.005c-0.007-0.04-0.011-0.08-0.014-0.121
		c0.004,0.04,0.003,0.082,0.01,0.121c0,0.002,0.001,0.003,0.001,0.005c-0.62,0.114-1.094,0.654-1.11,1.303
		c0,0-0.002,0.019-0.002,0.029c0,0.662,0.477,1.211,1.105,1.329C20.318,48.42,20.65,47.93,21.139,47.65z"/>
	<path style="fill:none;" d="M18.516,44.261c-0.63,0.117-1.121,0.669-1.121,1.332c0,0.748,0.498,1.356,1.347,1.356v0.015
		c0.283-0.562,0.732-0.993,1.334-1.126c-0.002-0.001,0-0.006,0-0.006c0.002,0,0.003,0,0.005,0c-0.807-0.283-1.445-0.763-1.562-1.572
		C18.518,44.259,18.516,44.261,18.516,44.261z"/>
	<path style="fill:none;" d="M21.834,47.929c-0.264,0.048-0.531,0.172-0.695,0.349c-0.245,0.247-0.417,0.595-0.418,0.982
		c0.793,0.172,1.608,0.283,2.441,0.326c0.085-0.031,0.172-0.057,0.262-0.076c-0.409-0.057-0.778-0.247-1.058-0.527
		C22.085,48.705,21.892,48.338,21.834,47.929z"/>
	<path style="fill:none;" d="M34.05,45.748c0.383-0.341,0.749-0.703,1.096-1.083c-0.266,0.047-0.505,0.171-0.699,0.35
		C34.256,45.208,34.106,45.462,34.05,45.748z"/>
	<path style="fill:none;" d="M16.906,45.327c0.008,0.002,0.016,0.002,0.025,0.004c-0.007-0.002-0.014-0.002-0.021-0.004
		c0.084-0.587,0.457-1.087,0.957-1.363c-0.001-0.001-0.002-0.001-0.002-0.002c-0.482-0.267-0.834-0.742-0.933-1.303
		c-0.008-0.045-0.013-0.091-0.018-0.137c0.005,0.045,0.004,0.092,0.012,0.137c-0.637,0.112-1.125,0.667-1.125,1.335
		C15.799,44.658,16.274,45.212,16.906,45.327z"/>
	<path style="fill:none;" d="M18.529,43.665c0.141-0.788,0.782-1.406,1.581-1.516c-0.001,0-0.002,0-0.003-0.001
		c-0.63-0.131-1.144-0.58-1.366-1.173c-0.739,0.011-1.337,0.614-1.337,1.356C17.404,42.998,17.894,43.552,18.529,43.665z"/>
	<path style="fill:none;" d="M14.092,45.957c0.396,0.34,0.809,0.659,1.238,0.956c0.25-0.567,0.775-0.985,1.405-1.087
		c0.007,0.002,0.013,0.004,0.02,0.006c-0.006-0.002-0.011-0.004-0.018-0.006c-0.609-0.171-1.101-0.593-1.318-1.17
		c0,0,0.004-0.009,0.004-0.011c-0.327,0.008-0.656,0.147-0.898,0.371C14.29,45.254,14.104,45.587,14.092,45.957z"/>
	<path style="fill:none;" d="M13.382,45.31c0.099,0.025,0.202,0.038,0.308,0.04c0.007,0,0.02,0.001,0.02,0.001
		s-0.002-0.001-0.008-0.001c0.152-0.407,0.416-0.746,0.825-0.962c0.24-0.136,0.499-0.221,0.782-0.244
		c0-0.001-0.004-0.001-0.004-0.002c-0.004-0.049-0.008-0.098-0.008-0.149c0-0.072,0.002-0.142,0.01-0.211
		c0.011,0.001,0.023,0.002,0.036,0.002c-0.009-0.001-0.018-0.001-0.026-0.002c-0.292-0.02-0.546-0.107-0.791-0.247
		c-0.408-0.207-0.642-0.527-0.799-0.913c-0.058-0.143-0.104-0.294-0.126-0.452c-0.026-0.003-0.067-0.007-0.098-0.012
		c0.024,0.004,0.032,0.009,0.057,0.012c0.021,0.158,0.089,0.309,0.089,0.452v0.015c-0.849,0-1.325,0.608-1.325,1.356
		c0,0.081,0.023,0.159,0.037,0.236C12.676,44.606,13.029,44.967,13.382,45.31z"/>
	<path style="fill:none;" d="M22.14,43.281v0.014c0-0.567,0.699-0.994,1.31-1.123c-0.004-0.001-0.023-0.001-0.027-0.002
		c-0.82-0.111-1.482-0.759-1.6-1.576c-0.26,0.05-0.522,0.172-0.683,0.347c-0.245,0.247-0.42,0.596-0.42,0.984
		c0,0.387,0.186,0.736,0.431,0.984C21.394,43.138,21.574,43.281,22.14,43.281z"/>
	<path style="fill:none;" d="M31.822,43.665c0.141-0.789,0.777-1.408,1.577-1.517c0.043,0.009,0.08,0.016,0.125,0.022
		c0.012,0.096,0.048,0.189,0.074,0.278c-0.024-0.09-0.043-0.183-0.056-0.278c-0.044-0.006-0.092-0.013-0.136-0.022
		c-0.63-0.131-1.145-0.581-1.367-1.173c-0.739,0.011-1.337,0.614-1.337,1.356C30.703,42.998,31.187,43.552,31.822,43.665z"/>
	<path style="fill:none;" d="M22.46,43.994c0,0.665,0.487,1.218,1.118,1.333c0.085-0.587,0.437-1.087,0.936-1.363
		c-0.001-0.001-0.002-0.001-0.002-0.002c-0.392-0.217-0.698-0.571-0.853-0.997c-0.024-0.065-0.044-0.132-0.06-0.202
		c-0.008-0.034-0.016-0.069-0.022-0.104C22.94,42.774,22.46,43.327,22.46,43.994z"/>
	<path style="fill:none;" d="M21.828,40.526c0.001,0.012,0.002,0.024,0.003,0.036C21.837,40.55,21.84,40.538,21.828,40.526z"/>
	<path style="fill:none;" d="M27.833,46.983c0.16,0.176,0.406,0.302,0.668,0.351c0.142-0.789,0.781-1.408,1.581-1.517
		c-0.63-0.131-1.145-0.58-1.366-1.172c-0.346,0.009-0.641,0.148-0.883,0.371c-0.327,0.248-0.425,0.597-0.425,0.984
		C27.408,46.387,27.507,46.736,27.833,46.983z"/>
	<path style="fill:none;" d="M30.198,42.331c0,0.045,0.009,0.087,0.012,0.131c-0.002-0.043-0.004-0.087-0.004-0.131
		c0-0.051,0.01-0.1,0.014-0.149c-0.018-0.002-0.038-0.003-0.06-0.005c0.015,0.002,0.029,0.003,0.044,0.005
		C30.2,42.232,30.198,42.281,30.198,42.331z"/>
	<path style="fill:none;" d="M30.209,45.327c0.021,0.004,0.042,0.007,0.062,0.01c-0.019-0.002-0.038-0.007-0.058-0.01
		c0.084-0.587,0.455-1.086,0.954-1.363c-0.001,0-0.002-0.001-0.003-0.002c-0.483-0.267-0.833-0.742-0.933-1.303
		c-0.006-0.033-0.009-0.068-0.012-0.102c0.004,0.034,0.003,0.069,0.009,0.102c-0.637,0.112-1.123,0.667-1.123,1.335
		C29.105,44.658,29.577,45.212,30.209,45.327z"/>
	<path style="fill:none;" d="M23.975,45.593c0,0.748,0.713,1.356,1.279,1.356v0.015c0.283-0.568,0.812-0.998,1.425-1.124
		c0.03,0.003,0.133,0.007,0.167,0.01c0.011,0.001,0.022,0.002,0.033,0.002c-0.004,0.049-0.007,0.099-0.007,0.149
		c0,0.112,0.011,0.223,0.029,0.329c-0.626,0.109-1.105,0.652-1.121,1.305c0,0-0.011,0.018-0.011,0.029
		c0,0.665,0.471,1.214,1.103,1.329c0.047,0.009,0.09,0.012,0.134,0.016c-0.038-0.004-0.073-0.017-0.119-0.025
		c0.082-0.575,0.456-1.079,0.945-1.359c0-0.004,0.004-0.034,0.01-0.039c-0.001,0-0.002-0.053-0.002-0.053h-0.005
		c-0.011,0-0.003,0.035-0.003,0.029c-0.49-0.27-0.819-0.683-0.917-1.232c-0.019-0.106-0.035-0.217-0.035-0.328
		c0-0.05-0.002-0.099,0.002-0.149c-0.012-0.001-0.025-0.003-0.037-0.004c-0.03-0.002-0.06-0.008-0.089-0.012
		c-0.821-0.112-1.474-0.761-1.592-1.58c-0.004-0.028-0.007-0.061-0.01-0.089c-0.001-0.006-0.001-0.022-0.002-0.028
		c0.001,0.006,0.001-0.004,0.001-0.004c-0.001,0-0.002,0-0.002,0c0.002,0-0.029,0.077-0.026,0.105
		C24.495,44.354,23.975,44.928,23.975,45.593z"/>
	<path style="fill:#267BD2;" d="M41.98,40.187l0.011,0.034l-0.044,0.058c-2.642,7.381-9.603,12.665-17.757,12.665
		c-9.007,0-16.56-6.449-18.441-15.049c-0.176-0.03-0.343-0.085-0.496-0.167c-0.118-0.025-0.339-0.063-0.469-0.086
		c-0.344-0.06-0.751-0.132-1.191-0.229c1.728,9.962,10.305,17.555,20.597,17.555c10.407,0,19.061-7.763,20.653-17.889
		c-0.753-0.26-1.405-0.431-1.981-0.436C42.677,37.866,42.38,39.051,41.98,40.187z"/>
	<path style="fill:#267BD2;" d="M29.488,39.279c-0.256,0.056-0.523,0.106-0.786,0.151c-0.001,0.001-0.001,0.002-0.001,0.003
		c0.118,0.277,0.211,0.536,0.284,0.779C29.016,39.836,29.207,39.505,29.488,39.279z"/>
	<path style="fill:#267BD2;" d="M10.242,38.912c-0.226-0.055-0.497-0.121-0.791-0.197c-0.017,0.01-0.033,0.019-0.049,0.029
		c-0.005-0.015-0.008-0.03-0.013-0.045c-0.357-0.091-0.747-0.194-1.133-0.302c1.774,7.014,8.138,12.221,15.696,12.221
		c6.323,0,11.811-3.645,14.474-8.943c-0.338-0.134-0.74-0.3-1.18-0.495c-0.118,0.149-0.214,0.27-0.282,0.451
		c-0.001-0.001-0.001-0.046-0.002-0.046c0,0,0,0-0.001,0c-0.708,0-1.283-0.52-1.329-1.22c-0.166-0.085-0.333-0.151-0.5-0.242
		c-0.002,0.025-0.005,0.062-0.007,0.086c0.001-0.024,0.003-0.044,0.005-0.07c-0.499-0.271-1-0.564-1.479-0.88
		c-0.011-0.002-0.024-0.002-0.036-0.004c0.14,0.431,0.421,0.792,0.832,1.018c0,0.007,0.029,0.014,0.04,0.014
		c0.171,0.071,0.346,0.158,0.541,0.2c-0.194-0.037-0.379-0.102-0.546-0.195c-0.011,0.007-0.036,0.013-0.036,0.019
		c-0.49,0.28-0.822,0.771-0.905,1.346c-0.63-0.118-1.11-0.673-1.11-1.336c0-0.011-0.001-0.034-0.001-0.034
		c0.011-0.476,0.261-0.881,0.633-1.113c-0.201-0.028-0.443-0.057-0.682-0.084c-0.145,0.157-0.049,0.338-0.333,0.535v-0.014
		c-0.283,0-0.884-0.245-1.129-0.614c-0.34,0.003-0.492,0.033-0.547,0.046c0.28,0.599,0.875,1.002,1.569,1.081
		c-0.003,0.041,0.056,0.062,0.051,0.082c-0.004,0.02,0.056,0.041,0.056,0.081c0,0,0,0.024,0,0.034c0,0.051-0.06,0.102-0.057,0.151
		c-0.741,0.051-1.381,0.539-1.631,1.207c-0.511-0.007-0.974-0.3-1.201-0.725c0.019,0.166,0.016,0.322,0.005,0.466l-0.009,0.05
		c-0.01,0.084-0.026,0.169-0.044,0.254c0.268,0.234,0.56,0.395,0.929,0.445c-0.613,0.127-1.107,0.557-1.39,1.125v-0.014
		c0,0-0.305-0.04-0.473-0.111c-0.165,0.115-0.332,0.204-0.539,0.255c0.053,0.039,0.119,0.077,0.184,0.111
		c0.245,0.14,0.503,0.227,0.795,0.247c0.026,0.002,0.064,0.002,0.087,0.003c-0.027,0-0.071-0.002-0.098-0.003
		c-0.008,0.069-0.011,0.14-0.011,0.211c0,0.051,0.004,0.1,0.007,0.149c0,0.001,0.001,0.002,0.001,0.002
		c-0.282,0.023-0.533,0.109-0.771,0.243c-0.408,0.216-0.673,0.554-0.825,0.962c0.007,0,0.008,0.001,0.008,0.001
		s-0.016-0.001-0.023-0.001c-0.74-0.011-1.34-0.62-1.34-1.362c0-0.346,0.139-0.666,0.357-0.907c-0.139-0.088-0.276-0.188-0.41-0.296
		c-0.212,0.247-0.362,0.549-0.422,0.882c-0.637-0.112-1.124-0.667-1.124-1.335c0-0.157,0.027-0.307,0.077-0.447
		c-0.179-0.035-0.35-0.104-0.515-0.206c-0.72-0.032-1.293-0.627-1.293-1.356c0-0.011,0.005-0.034,0.005-0.034
		c0.001-0.023,0.003-0.054,0.006-0.087c-0.333,0.029-0.733,0.055-1.199,0.071c0.001,0.001,0.002,0.001,0.003,0.002
		c0,0.007,0.018,0.014,0.029,0.014c0.174,0.073,0.402,0.161,0.566,0.202c-0.197-0.037-0.387-0.103-0.556-0.197
		c-0.011,0.007-0.038,0.013-0.038,0.019c-0.489,0.28-0.821,0.771-0.905,1.345c-0.628-0.118-1.105-0.672-1.105-1.334
		c0-0.011,0.002-0.034,0.002-0.034c0-0.005,0.001-0.011,0.001-0.017c-0.168-0.005-0.337-0.012-0.507-0.021
		c-0.001,0.012-0.001,0.023-0.001,0.037c0,0-0.086,0.024-0.086,0.034c0,0.051-0.079,0.101-0.079,0.15v0.001
		c-0.566,0.051-1.268,0.539-1.518,1.207c-0.74-0.011-1.3-0.616-1.3-1.359c0-0.011,0.017-0.034,0.017-0.034
		c0.002-0.094,0.03-0.198,0.058-0.3c-0.155-0.021-0.305-0.041-0.46-0.064c-0.025,0.262-0.073,0.487-0.141,0.683
		c0.024-0.006,0.049-0.012,0.074-0.016c0.118,0.819,0.771,1.467,1.592,1.579c0.041,0.006,0.093,0.01,0.134,0.012
		c0.011,0.001,0.02,0.002,0.029,0.002c-0.009-0.001-0.018-0.001-0.029-0.002c-0.004,0.049-0.012,0.098-0.012,0.149
		c0,0.049,0.002,0.097,0.005,0.145c-0.004-0.049-0.013-0.096-0.013-0.145c0-0.051,0.003-0.1,0.007-0.149
		c-0.039-0.003-0.082-0.007-0.122-0.012c-0.002,0-0.043-0.001-0.045-0.001c-0.612,0.127-1.108,0.557-1.391,1.125v-0.014
		c-0.283,0-0.614-0.143-0.859-0.373c-0.245-0.247-0.416-0.597-0.416-0.984c0-0.069,0.016-0.137,0.025-0.203
		c-0.173,0.068-0.352,0.102-0.544,0.102c-0.467,0-0.891-0.201-1.322-0.559c0.262,0.447,0.704,0.776,1.227,0.885
		c-0.785,0.107-1.416,0.704-1.571,1.474c-0.398-0.519-0.761-1.066-1.089-1.635c0.137-0.526,0.584-0.926,1.133-0.999
		c-0.131-0.129-0.263-0.272-0.399-0.427c-0.443,0.15-0.818,0.471-1.048,0.855c-0.362-0.694-0.671-1.419-0.923-2.17
		c0.21-0.159,0.465-0.258,0.727-0.274C10.272,38.952,10.257,38.932,10.242,38.912z M15.764,47.203
		c0.193-0.515,0.697-0.887,1.272-0.896c0.266,0.637,0.883,1.096,1.603,1.144c0.041,0.002,0.051,0.004,0.132,0.004
		c-0.082,0-0.089,0.001-0.13-0.002c-0.007,0.059-0.016,0.1-0.017,0.182c0,0-0.011,0.019-0.011,0.029c0,0.05-0.005,0.097-0.005,0.146
		c-0.381,0.027-0.731,0.171-1.015,0.398C16.958,47.916,16.347,47.579,15.764,47.203z M20.363,42.645
		c0.159,0.377,0.456,0.723,0.776,0.925c0.245,0.14,0.539,0.281,0.831,0.281c0.002,0,0.005,0,0.007,0c-0.007,0-0.02,0.106-0.02,0.177
		c0,0.051-0.002,0.083,0.002,0.131c0.002,0.022,0.004,0.036,0.007,0.057c0.016,0.152,0.051,0.294,0.102,0.433
		c0.221,0.592,0.735,1.04,1.365,1.171c0.001,0,0.003,0,0.004,0.001c-0.795,0.113-1.437,0.731-1.578,1.517
		c-0.015,0.085-0.028,0.188-0.031,0.266c0.002-0.078,0.003-0.181,0.018-0.266c-0.267-0.047-0.461-0.174-0.706-0.354
		c-0.245-0.247-0.426-0.596-0.426-0.984c0-0.387,0.18-0.736,0.425-0.984c0.245-0.226,0.562-0.367,0.916-0.371
		c-0.052-0.139-0.084-0.285-0.101-0.437c-0.002-0.021-0.005-0.043-0.007-0.065c-0.291,0.02-0.564,0.107-0.809,0.246
		c-0.327,0.216-0.672,0.554-0.825,0.961c-0.736-0.015-1.28-0.616-1.28-1.355C19.035,43.27,19.559,42.682,20.363,42.645z
		 M20.225,46.142c-0.003-0.048-0.012-0.094-0.012-0.142c0-0.02,0.013-0.041,0.014-0.06c0,0.02-0.006,0.041-0.006,0.06
		C20.221,46.047,20.222,46.095,20.225,46.142z M20.082,45.832c-0.002,0-0.003,0-0.005,0c0,0-0.003,0.005,0,0.006
		c-0.603,0.133-1.051,0.564-1.334,1.126v-0.015c-0.849,0-1.347-0.608-1.347-1.356c0-0.664,0.49-1.216,1.121-1.332
		c0,0,0.002-0.002,0.005-0.001C18.637,45.07,19.275,45.549,20.082,45.832z M18.149,48.454c0.174-0.087,0.369-0.137,0.578-0.14
		c-0.045-0.119-0.09-0.242-0.109-0.371c0.02,0.128,0.067,0.251,0.111,0.371c0,0,0.006,0,0.006,0.001
		c0.061,0.164,0.145,0.318,0.247,0.457C18.701,48.673,18.423,48.567,18.149,48.454z M19.13,47.665c0-0.011,0.002-0.029,0.002-0.029
		c0.016-0.649,0.489-1.189,1.11-1.303c0-0.002-0.001-0.003-0.001-0.005c-0.007-0.039-0.006-0.081-0.01-0.121
		c0.003,0.041,0.007,0.081,0.014,0.121c0,0.002-0.002,0.003-0.001,0.005c0.099,0.546,0.407,1.01,0.896,1.279
		c0,0.005,0.02,0.016,0.036,0.021c-0.013,0.005-0.036,0.011-0.036,0.016c-0.489,0.28-0.821,0.771-0.905,1.345
		C19.606,48.876,19.13,48.327,19.13,47.665z M23.162,49.586c-0.833-0.042-1.648-0.153-2.441-0.326
		c0.001-0.387,0.173-0.735,0.418-0.982c0.163-0.177,0.431-0.301,0.695-0.349c0.059,0.409,0.251,0.776,0.532,1.055
		c0.28,0.279,0.649,0.469,1.058,0.527C23.334,49.529,23.247,49.555,23.162,49.586z M23.657,49.019
		c-0.739-0.011-1.333-0.611-1.333-1.354c0-0.011,0.089-0.029,0.089-0.029c0.016-0.693,0.518-1.256,1.288-1.318
		c0.268,0.631,0.858,1.086,1.574,1.134c0.041,0.002,0.109,0.004,0.109,0.004s-0.07,0.001-0.111-0.002
		c-0.007,0.059,0.002,0.1,0.001,0.182c0,0-0.001,0.019-0.001,0.029c0,0.05,0.002,0.098,0.007,0.148
		c0.011,0.133,0.037,0.26,0.073,0.385c-0.038-0.124-0.066-0.252-0.077-0.386C24.534,47.863,23.908,48.35,23.657,49.019z
		 M23.986,49.606c0.033-0.712,0.702-1.282,1.268-1.292c0,0,0,0,0,0.001c0.283,0.496,0.613,0.893,1.106,1.084
		C25.577,49.53,24.805,49.601,23.986,49.606z M27.392,49.212c0.01-0.367,0.129-0.697,0.442-0.934c0.16-0.174,0.4-0.296,0.658-0.347
		c-0.001-0.001-0.001-0.002-0.001-0.002c-0.004-0.028-0.007-0.055-0.011-0.082c0-0.002,0.004-0.002,0.007-0.003
		c-0.001,0.001-0.002,0.002-0.002,0.003c0.002,0.028,0.004,0.055,0.008,0.082c0.001,0.001,0,0.002,0,0.002
		c0.047,0.321,0.175,0.615,0.362,0.861C28.377,48.957,27.889,49.097,27.392,49.212z M29.363,48.609
		c-0.238-0.243-0.385-0.576-0.385-0.944c0-0.011,0.002-0.029,0.002-0.029c0.017-0.726,0.635-1.314,1.359-1.328
		c0.245,0.585,0.789,1.021,1.434,1.124C31.01,47.892,30.204,48.287,29.363,48.609z M32.049,46.964v-0.015
		c-0.566,0-1.351-0.53-1.351-1.278c0-0.663,0.488-1.254,1.117-1.254h0.007c0.118,0.566,0.747,1.382,1.562,1.498
		C32.78,46.047,32.332,46.4,32.049,46.964z M34.05,45.748c0.056-0.286,0.207-0.54,0.397-0.732c0.193-0.179,0.433-0.304,0.699-0.35
		C34.799,45.045,34.432,45.407,34.05,45.748z M35.766,43.945c0.019-0.562,0.378-1.036,0.89-1.222
		C36.379,43.145,36.082,43.553,35.766,43.945z M35.114,40.503c0,0-0.001,0.001-0.003,0.001c-0.026-0.004-0.052-0.01-0.078-0.015
		C35.06,40.494,35.087,40.499,35.114,40.503z M34.446,40.94c0.161-0.175,0.419-0.297,0.679-0.347
		c0.119,0.818,0.779,1.45,1.598,1.561c0.039,0.005,0.084-0.003,0.123-0.003c0.002,0,0.002,0,0.004,0
		c-0.003,0,0.003,0.093,0.004,0.138c-0.004-0.044-0.023-0.046-0.02-0.127c-0.041,0-0.182,0.003-0.219-0.002
		c-0.613,0.127-1.17,0.567-1.453,1.135v-0.014c0,0-0.562-0.143-0.807-0.373c-0.245-0.247-0.38-0.597-0.38-0.984
		C33.976,41.536,34.201,41.188,34.446,40.94z M33.657,42.627c0.157,0.385,0.463,0.736,0.789,0.943
		c0.245,0.14,0.498,0.281,0.79,0.281c0.002,0,0.002,0,0.004,0c-0.008,0-0.002,0.106-0.002,0.177c0,0.046,0.006,0.077,0.01,0.119
		c-0.29,0.02-0.557,0.063-0.802,0.202c-0.327,0.216-0.673,0.635-0.825,0.918c-0.002,0-0.002,0-0.004,0
		c-0.739,0-1.413-0.572-1.413-1.314c0-0.748,0.693-1.314,1.259-1.314v-0.015c0-0.051,0.071-0.104,0.057-0.158
		C33.537,42.519,33.636,42.576,33.657,42.627z M32.04,40.975c0.222,0.592,0.736,1.043,1.367,1.173
		c0.043,0.009,0.091,0.016,0.136,0.022c0.013,0.096,0.032,0.189,0.056,0.278c-0.026-0.09-0.062-0.183-0.074-0.278
		c-0.045-0.006-0.082-0.013-0.125-0.022c-0.8,0.109-1.436,0.727-1.577,1.517c-0.635-0.113-1.119-0.668-1.119-1.334
		C30.703,41.589,31.302,40.986,32.04,40.975z M30.219,42.183c-0.004,0.049-0.014,0.098-0.014,0.149c0,0.044,0.002,0.088,0.004,0.131
		c-0.003-0.044-0.012-0.086-0.012-0.131c0-0.051,0.002-0.1,0.006-0.149c-0.015-0.002-0.029-0.003-0.044-0.005
		C30.181,42.18,30.201,42.181,30.219,42.183z M30.227,42.659c-0.006-0.033-0.005-0.068-0.009-0.102
		c0.004,0.034,0.006,0.068,0.012,0.102c0.1,0.561,0.451,1.036,0.933,1.303c0.001,0.001,0.002,0.002,0.003,0.002
		c-0.499,0.278-0.869,0.776-0.954,1.363c0.02,0.003,0.039,0.007,0.058,0.01c-0.02-0.002-0.041-0.006-0.062-0.01
		c-0.632-0.115-1.105-0.669-1.105-1.333C29.105,43.326,29.59,42.771,30.227,42.659z M27.833,45.016
		c0.242-0.223,0.536-0.362,0.883-0.371c0.221,0.592,0.736,1.042,1.366,1.172c-0.799,0.109-1.439,0.728-1.581,1.517
		c-0.262-0.049-0.508-0.175-0.668-0.351c-0.327-0.247-0.425-0.596-0.425-0.984C27.408,45.613,27.507,45.264,27.833,45.016z
		 M25.152,44.134c0.001,0,0.002,0,0.002,0c0,0,0,0.01-0.001,0.004c0.001,0.006,0.001,0.022,0.002,0.028
		c0.002,0.029,0.006,0.062,0.01,0.089c0.118,0.819,0.771,1.468,1.592,1.58c0.029,0.004,0.059,0.01,0.089,0.012
		c0.012,0.001,0.025,0.003,0.037,0.004c-0.004,0.05-0.002,0.099-0.002,0.149c0,0.112,0.016,0.222,0.035,0.328
		c0.098,0.549,0.427,0.962,0.917,1.232c0,0.007-0.008-0.029,0.003-0.029h0.005c0,0,0.001,0.053,0.002,0.053
		c-0.006,0.005-0.01,0.035-0.01,0.039c-0.49,0.281-0.863,0.785-0.945,1.359c0.046,0.008,0.082,0.021,0.119,0.025
		c-0.044-0.003-0.087-0.007-0.134-0.016c-0.632-0.115-1.103-0.665-1.103-1.329c0-0.011,0.011-0.029,0.011-0.029
		c0.016-0.653,0.495-1.196,1.121-1.305c-0.019-0.106-0.029-0.217-0.029-0.329c0-0.05,0.002-0.1,0.007-0.149
		c-0.011-0.001-0.021-0.002-0.033-0.002c-0.034-0.002-0.137-0.006-0.167-0.01c-0.613,0.127-1.142,0.556-1.425,1.124v-0.015
		c-0.566,0-1.279-0.608-1.279-1.356c0-0.665,0.52-1.239,1.151-1.354C25.123,44.211,25.155,44.134,25.152,44.134z M23.597,42.763
		c0.016,0.069,0.037,0.136,0.06,0.202c0.155,0.426,0.461,0.78,0.853,0.997c0.001,0.001,0.002,0.001,0.002,0.002
		c-0.499,0.277-0.851,0.776-0.936,1.363c-0.631-0.115-1.118-0.669-1.118-1.333c0-0.666,0.48-1.22,1.115-1.334
		C23.582,42.695,23.589,42.729,23.597,42.763z M21.831,40.562c-0.001-0.012-0.002-0.024-0.003-0.036
		C21.84,40.538,21.837,40.55,21.831,40.562z M21.139,40.94c0.161-0.175,0.423-0.297,0.683-0.347c0.119,0.818,0.78,1.466,1.6,1.576
		c0.004,0.001,0.023,0.001,0.027,0.002c-0.611,0.129-1.31,0.557-1.31,1.123v-0.014c-0.566,0-0.745-0.143-0.99-0.373
		c-0.245-0.247-0.431-0.597-0.431-0.984C20.719,41.536,20.894,41.188,21.139,40.94z M18.741,40.975
		c0.222,0.593,0.736,1.043,1.366,1.173c0.001,0,0.002,0,0.003,0.001c-0.799,0.11-1.44,0.728-1.581,1.516
		c-0.634-0.113-1.125-0.667-1.125-1.333C17.404,41.589,18.002,40.986,18.741,40.975z M16.925,42.659
		c-0.008-0.044-0.007-0.091-0.012-0.137c0.004,0.046,0.009,0.092,0.018,0.137c0.1,0.561,0.451,1.036,0.933,1.303
		c0.001,0.001,0.002,0.001,0.002,0.002c-0.5,0.277-0.873,0.776-0.957,1.363c0.007,0.002,0.014,0.002,0.021,0.004
		c-0.008-0.002-0.016-0.002-0.025-0.004c-0.632-0.115-1.106-0.669-1.106-1.333C15.799,43.326,16.288,42.771,16.925,42.659z
		 M15.424,44.645c0,0.002-0.004,0.011-0.004,0.011c0.216,0.577,0.709,0.998,1.318,1.17c0.007,0.002,0.012,0.004,0.018,0.006
		c-0.007-0.002-0.014-0.003-0.02-0.006c-0.63,0.103-1.155,0.521-1.405,1.087c-0.429-0.297-0.843-0.616-1.238-0.956
		c0.012-0.37,0.198-0.703,0.434-0.941C14.768,44.792,15.097,44.653,15.424,44.645z M13.647,42.638v-0.015
		c0-0.143-0.067-0.294-0.089-0.452c-0.024-0.003-0.032-0.008-0.057-0.012c0.032,0.005,0.072,0.009,0.098,0.012
		c0.021,0.158,0.068,0.309,0.126,0.452c0.157,0.385,0.391,0.706,0.799,0.913c0.245,0.14,0.499,0.227,0.791,0.247
		c0.008,0.001,0.017,0.001,0.026,0.002c-0.013,0-0.025-0.001-0.036-0.002c-0.008,0.069-0.01,0.14-0.01,0.211
		c0,0.051,0.004,0.1,0.008,0.149c0,0.001,0.004,0.001,0.004,0.002c-0.283,0.023-0.542,0.109-0.782,0.244
		c-0.408,0.216-0.673,0.554-0.825,0.962c0.007,0,0.008,0.001,0.008,0.001s-0.013-0.001-0.02-0.001
		c-0.106-0.002-0.209-0.015-0.308-0.04c-0.354-0.343-0.706-0.704-1.024-1.08c-0.014-0.077-0.037-0.155-0.037-0.236
		C12.321,43.246,12.797,42.638,13.647,42.638z"/>
	<path style="fill:#267BD2;" d="M27.256,39.8c-0.088-0.193-0.187-0.396-0.298-0.606l-0.023-0.044
		C26.999,39.389,27.109,39.609,27.256,39.8z"/>
	<path style="fill:#267BD2;" d="M5.923,28.807c2.136-8.234,9.516-14.324,18.267-14.324c9.096,0,16.709,6.578,18.495,15.305
		c1.097-0.052,1.601-0.179,1.717-0.236c0.065-0.041,0.158-0.105,0.265-0.18c-1.64-7.996-7.713-14.359-15.481-16.3l-2.369-2.598
		c0.548-0.603,0.883-1.403,0.883-2.28c0-0.705-0.194-1.352-0.562-1.869c-0.445-0.627-1.31-1.394-1.346-1.427l-0.125-0.032
		c-0.129-0.093-0.695-0.517-0.695-0.901V2.349c1.416-0.214,2.16-1.249,2.16-2.381h-4.892c0,1.132,0.75,2.109,1.882,2.36v1.638
		c0,0.902,0.833,1.571,1.01,1.704c0.115,0.104,0.83,0.75,1.178,1.24c0.246,0.346,0.376,0.789,0.376,1.283
		c0,0.581-0.209,1.113-0.556,1.527l-0.752-0.826c-0.319-0.35-0.743-0.543-1.191-0.535c-0.45,0.005-0.869,0.204-1.18,0.56
		l-0.605,0.693c-0.296-0.397-0.472-0.888-0.472-1.42c0-0.28-0.227-0.506-0.506-0.506c-0.279,0-0.506,0.227-0.506,0.506
		c0,0.836,0.305,1.602,0.808,2.194l-2.292,2.626c-7.923,1.879-14.129,8.348-15.747,16.487c0.585-0.228,1.194-0.433,1.802-0.585
		C5.64,28.879,5.784,28.843,5.923,28.807z"/>
	<path style="fill:#267BD2;" d="M36.955,27.192l1.287-0.647c0.371,0.745,0.685,1.524,0.936,2.33
		c0.343-0.088,0.673-0.168,0.994-0.213c-2.095-6.87-8.491-11.882-16.037-11.882c-7.371,0-13.645,4.783-15.885,11.408
		c0.424-0.116,0.795-0.217,1.19-0.315c0.168-0.434,0.354-0.859,0.559-1.273l1.304,0.806l0.266-0.43l-1.338-0.828
		c0.585-1.094,1.295-2.112,2.111-3.034l3.139,2.676l0.328-0.385l-3.126-2.665c0.893-0.946,1.901-1.782,3.003-2.485l0.96,1.373
		l0.415-0.29l-0.943-1.348c1.057-0.628,2.193-1.135,3.39-1.504l0.391,1.536l0.49-0.125l-0.416-1.552
		c1.242-0.339,2.452-0.529,3.867-0.551v3.972h0.566v-3.972c1.416,0.022,2.729,0.225,4.01,0.587l-0.38,1.388l0.486,0.132l0.371-1.376
		c1.268,0.403,2.467,0.962,3.574,1.656l-0.891,1.238l0.411,0.296l0.905-1.258c1.038,0.697,1.989,1.514,2.833,2.432l-2.984,2.574
		l0.33,0.383l2.99-2.579c0.747,0.866,1.402,1.814,1.949,2.828l-1.281,0.644L36.955,27.192z"/>
	<path style="fill:#267BD2;" d="M51.385,35.52l-0.105-0.525l-0.028-0.042c-0.112-0.156-0.451-0.721-0.514-1.857
		c-0.061-1.094,0.458-1.53,0.709-1.675c0.01-0.206,0.042-0.631,0.139-1.263c0.104-0.678-0.084-1.543-0.168-1.877
		c-0.195-0.026-0.393-0.04-0.593-0.04c-2.063,0-4.018,1.405-5.068,2.16l-0.014,0.01c-0.228,0.164-0.425,0.305-0.577,0.398
		c-0.071,0.043-0.154,0.083-0.248,0.119c-0.034,0.013-0.072,0.026-0.109,0.038c-0.724,0.241-1.943,0.306-2.917,0.314l-0.932,0.008
		l0.21-0.908c0.001-0.003,0.001-0.006,0.001-0.01c0-0.023-0.049-0.101-0.198-0.2c-0.027-0.018-0.11-0.074-0.33-0.074
		c-0.308,0-0.732,0.108-1.18,0.223c-0.634,0.162-1.354,0.342-2.035,0.312c-0.943-0.047-4.515-0.653-7.346-1.153l-2.062-0.364
		l1.806-0.987c-0.261-0.214-0.575-0.527-0.955-0.912c-0.258-0.262-0.498-0.504-0.675-0.656c-0.438-0.376-0.96-1.141-1.122-1.385
		l-0.103-0.028l-0.5-0.667c-0.152-0.202-0.462-0.565-0.612-0.738c-0.368,0.069-1.58,0.394-2.765,1.805
		c-1.212,1.443-2.423,2.283-2.887,2.577l-0.173,0.11l-0.205,0.004c-1.808,0.037-8.596,0.723-9.684,0.979
		c-0.452,0.106-0.851,0.212-1.301,0.335c0.002-0.007,0.003-0.013,0.005-0.02c-0.138,0.037-0.246,0.076-0.396,0.118L8.422,29.66
		c-0.025,0.007-0.051,0.018-0.076,0.025c-0.625,0.171-1.4,0.382-2.5,0.657c-2.001,0.5-4.09,1.662-5.093,2.22
		c-0.074,0.042-0.143,0.079-0.203,0.113l-0.085,0.047l-0.039,0.015c-0.012,0.021-0.045,0.096-0.045,0.273
		c0,0.017,0.018,0.065,0.083,0.139l0.373,0.421l-0.309,0.47c-0.008,0.013-0.017,0.029-0.025,0.048
		c-0.088,0.207-0.088,0.207,0.173,0.396l0.007,0.005c0.089,0.065,0.201,0.146,0.323,0.251c0.639,0.548,1.528,0.885,2.376,1.11
		c0,0.001,0,0.003,0,0.004c0.608,0.161,1.196,0.263,1.654,0.343c0.008,0.001,0.016,0.001,0.024,0.002
		c0.337,0.059,0.555,0.099,0.685,0.139l0.1,0.031l0.088,0.057c0.07,0.046,0.247,0.034,0.445-0.033l0.271-0.092l0.262,0.115
		c0.707,0.311,2.49,0.786,3.922,1.128l0.241,0.057l0.157,0.192c0.114,0.139,0.272,0.351,0.424,0.555
		c0.448,0.6,1.499,2.006,1.9,2.006c0.013,0,0.016-0.002,0.018-0.003c0.148-0.082,0.232-0.376,0.235-0.786c0,0,0,0.001,0,0.001
		c0-0.053-0.002-0.109-0.004-0.165c-0.001-0.012,0-0.023-0.001-0.035c-0.004-0.073-0.01-0.148-0.018-0.226l-0.103-0.965l0.956,0.162
		c0.576,0.098,1.147,0.176,1.716,0.244c-0.004,0.002-0.008,0.003-0.012,0.004c0.372,0.044,0.752,0.084,1.12,0.116l0-0.001
		c0.66,0.057,1.31,0.087,1.953,0.102c-0.003,0.002-0.007,0.004-0.01,0.007c0.247,0.006,0.492,0.01,0.736,0.01
		c0.193,0,0.375-0.003,0.551-0.006c0.012,0,0.027,0,0.039,0l0-0.001c0.951-0.021,1.642-0.086,1.997-0.129l0.115-0.014
		c-0.003,0.001-0.006,0.002-0.009,0.004l0.416-0.051l0.227,0.473c0.14,0.292,0.382,0.731,0.741,1.17
		c0.097,0.118,0.154,0.158,0.183,0.172l0.409-0.385l0,0l0.154-0.144l0.498,0.624c0.145,0.182,0.29,0.352,0.432,0.508
		c0.427,0.466,0.828,0.797,1.126,0.921c0.074,0.031,0.058,0.047,0.117,0.047c0.011,0,0.019-0.006,0.03-0.007
		c0.019,0.003,0.039,0.007,0.057,0.007c0.063,0,0.117-0.021,0.165-0.055c0-0.01,0-0.019,0-0.029c0-0.033,0.005-0.065,0.007-0.098
		c0.096-0.175,0.117-0.419,0.121-0.497c0.043-0.089,0.094-0.174,0.163-0.251c-0.021-0.161-0.07-0.355-0.144-0.575
		c-0.009,0.007-0.017,0.015-0.025,0.023c-0.131-0.379-0.379-0.836-0.642-1.333l-0.086-0.177c0.023-0.006,0.044-0.015,0.068-0.02
		l-0.277-0.414l-0.066-0.138c0.021,0.006,0.041,0.015,0.062,0.02l-0.108-0.205l1.04-0.137c0-0.001,0.001-0.002,0.001-0.003
		c0.586-0.077,1.109-0.164,1.544-0.253c0.001,0.001,0.002,0.002,0.002,0.003c0.221-0.045,0.417-0.092,0.587-0.138
		c-0.001-0.001-0.002-0.002-0.003-0.003c0.089-0.024,0.173-0.049,0.246-0.073c0.126-0.042,0.28-0.073,0.459-0.095
		c0,0,0,0.001,0,0.001c0.004-0.001,0.009-0.002,0.013-0.003c0.184-0.021,0.397-0.032,0.639-0.032c0.947,0,2.129,0.164,2.75,0.262
		l0,0c0.061,0.01,0.116,0.018,0.166,0.027c0.008,0.001,0.017,0.003,0.025,0.004c0.02,0.003,0.036,0.006,0.053,0.009
		c0.022,0.004,0.045,0.008,0.063,0.011l0.157,0.027l0.132,0.088c0.482,0.325,0.992,0.627,1.501,0.904l-0.001,0
		c0.17,0.092,0.281,0.182,0.449,0.268c0.01-0.005,0.019-0.01,0.029-0.015c0.424,0.218,0.839,0.417,1.23,0.595c0,0,0,0,0,0
		c0.002,0.001,0.003,0.001,0.004,0.002c1.053,0.478,1.924,0.801,2.269,0.924l0.535-0.695c-0.042-0.172-0.096-0.496-0.004-0.762
		l0.054-0.156l0.099-0.1c0.045-0.095,0.238-0.626,0.355-2.881l0.025-0.48l0.45-0.169c0.302-0.114,0.741-0.185,1.304-0.212
		c0.067-0.003,0.134-0.005,0.201-0.005c1.185,0,2.399,0.466,3.935,1.057l0.07,0.027c0.353,0.135,0.719,0.294,1.099,0.434
		c1.496,0.548,3.094,0.649,3.913,0.649c0.018,0,0.035,0,0.051,0C51.642,36.49,51.432,35.749,51.385,35.52z"/>
</g>
</svg>
