<?xml version="1.0" encoding="iso-8859-1"?>
<!-- Generator: Adobe Illustrator 17.0.2, SVG Export Plug-In . SVG Version: 6.00 Build 0)  -->
<!DOCTYPE svg PUBLIC "-//W3C//DTD SVG 1.1//EN" "http://www.w3.org/Graphics/SVG/1.1/DTD/svg11.dtd">
<svg version="1.1" xmlns="http://www.w3.org/2000/svg" xmlns:xlink="http://www.w3.org/1999/xlink" x="0px" y="0px" width="51.26px"
	 height="55.371px" viewBox="0 0 51.26 55.371" style="enable-background:new 0 0 51.26 55.371;" xml:space="preserve">
<g id="logo-home">
	<g>
		<g>
			<path style="fill:none;" d="M33.495,46.198c0.381-0.339,0.746-0.699,1.09-1.077c-0.265,0.046-0.503,0.171-0.695,0.348
				C33.7,45.661,33.551,45.914,33.495,46.198z"/>
			<path style="fill:none;" d="M29.802,46.755c-0.72,0.015-1.334,0.599-1.352,1.321c0,0-0.002,0.019-0.002,0.029
				c0,0.366,0.146,0.697,0.383,0.939c0.837-0.32,1.639-0.713,2.397-1.171C30.586,47.77,30.045,47.337,29.802,46.755z"/>
			<path style="fill:none;" d="M31.279,45.371h-0.007c-0.625,0-1.364,0.34-1.364,0.999c0,0.744,1.092,1.023,1.092,1.023v0.015
				c1-0.56,0.979-0.664,1.581-0.795C31.77,46.498,31.396,45.371,31.279,45.371z"/>
			<path style="fill:none;" d="M34.554,40.98c-0.027-0.004-0.054-0.009-0.081-0.014c0.026,0.005,0.052,0.011,0.078,0.015
				C34.553,40.981,34.554,40.98,34.554,40.98z"/>
			<path style="fill:none;" d="M33,43.104c-1,0-1.297,0.89-1.297,1.634c0,0.738,0.627,1.634,1.362,1.634c0.002,0,0.002,0,0.004,0
				c0.151-1,0.495-1.026,0.82-1.241c0.244-0.138,0.51-0.366,0.798-0.386c0.003,0.029,0.006-0.013,0.01,0.016
				c-0.004-0.028-0.007-0.091-0.009-0.119c-0.004-0.049-0.011,0.445-0.011,0.395c0-0.071-0.006,0.336,0.002,0.336
				c-0.002,0-0.002,0-0.004,0c-0.291,0-0.543-0.671-0.786-0.809c-0.325-0.205-0.629-0.807-0.785-1.19
				c-0.02-0.051-0.076-0.246-0.091-0.3C33.027,43.125,33,43.038,33,43.089V43.104z"/>
			<path style="fill:none;" d="M35.202,44.404c0.314-0.39,0.61-0.795,0.885-1.216C35.578,43.374,35.221,43.845,35.202,44.404z"/>
			<path style="fill:none;" d="M27.966,48.368c-0.004-0.028-0.006-0.054-0.008-0.082c0-0.002,0.002-0.002,0.002-0.003
				c-0.002,0.001-0.006,0.002-0.006,0.003c0.003,0.028,0.006,0.054,0.011,0.082c0,0.001,0,0.002,0.001,0.002
				c-0.257,0.05-0.495,0.172-0.655,0.345c-0.311,0.236-0.43,0.564-0.439,0.929c0.495-0.115,0.98-0.254,1.455-0.417
				c-0.187-0.245-0.314-0.538-0.361-0.857C27.966,48.369,27.967,48.369,27.966,48.368z"/>
			<path style="fill:none;" d="M20.651,48.09c0-0.006,0.023-0.011,0.036-0.016c-0.015-0.006,0.084-0.016,0.084-0.021
				C20.285,47.785,20,47.323,20,46.78c0-0.002,0-0.003,0-0.005c0-0.106-0.143-0.215-0.143-0.327c0-0.019-0.054-0.041-0.054-0.06
				c-0.001,0.019,0.078,0.041,0.078,0.06c0,0.111,0.119,0.221,0.119,0.327c0,0.002,0,0.003,0,0.005c-1,0.114-1.21,0.651-1.225,1.296
				c0,0-0.062,0.019-0.062,0.029c0,0.659,0.444,1.204,1.069,1.322C19.864,48.857,20.164,48.369,20.651,48.09z"/>
			<path style="fill:none;" d="M21.342,48.368c-0.262,0.048-0.529,0.171-0.691,0.348c-0.244,0.246-0.415,0.592-0.416,0.977
				c0.789,0.171,1.6,0.282,2.428,0.324c0.084-0.031,0.171-0.057,0.261-0.076c-0.407-0.057-0.774-0.246-1.053-0.524
				C21.592,49.14,21.4,48.775,21.342,48.368z"/>
			<path style="fill:none;" d="M18.254,48.75c-0.044-0.119-0.09-0.241-0.11-0.369c0.019,0.128,0.063,0.25,0.108,0.369
				c-0.208,0.003-0.402,0.053-0.575,0.14c0.272,0.113,0.549,0.218,0.829,0.316c-0.102-0.139-0.185-0.292-0.246-0.455
				C18.259,48.75,18.254,48.75,18.254,48.75z"/>
			<path style="fill:none;" d="M25.192,48.751C25.192,48.75,25.192,48.75,25.192,48.751c-0.789,0.01-1.453,0.577-1.485,1.285
				c0.815-0.005,1.695-0.076,2.474-0.206C25.69,49.64,25.192,49.245,25.192,48.751z"/>
			<path style="fill:none;" d="M20,43.104c0,0-1.421,0.605-1.421,1.349c0,0.736,0.56,1.334,1.292,1.348
				c0.152-0.404,0.475-0.742,0.8-0.956c0.244-0.138,0.506-0.224,0.795-0.244c0.002,0.022-0.001,0.044,0.001,0.065
				c0.016,0.151,0.045,0.296,0.097,0.435c-0.352,0.005-0.669,0.145-0.913,0.37c-0.244,0.247-0.424,0.594-0.424,0.979
				c0,0.386,0.179,0.733,0.423,0.979c0.244,0.179,0.435,0.305,0.701,0.352c-0.015,0.084-0.019,0.187-0.02,0.265
				c0.003-0.078,0.011-0.129,0.026-0.213c0.141-0.785,0.775-1.46,1.572-1.46c0.002,0,0.002,0,0.004,0
				c0.041,0,0.497-0.036,0.539-0.03C23.493,46.497,24,46.597,24,46.739v0.014c-1,0-1.732,0.592-1.749,1.323
				c0,0-0.213,0.019-0.213,0.029c0,0.738,0.487,1.336,1.222,1.347c0.249-0.665,0.82-1.15,1.559-1.201
				c0.011,0.133,0.012,0.261,0.05,0.384c-0.037-0.123,0.042-0.25,0.031-0.383C24.897,48.203,25,48.155,25,48.105
				c0-0.011,0-0.029,0-0.029c0-0.081-0.126-0.123-0.119-0.181c0.041,0.002,0.052,0.002,0.052,0.002s-0.097-0.002-0.137-0.004
				c-0.722-0.048-1.331-0.512-1.593-1.153c-0.058-0.142-0.1-0.293-0.121-0.45c-0.045-0.006-0.101-0.013-0.145-0.022
				c-0.627-0.13-1.14-0.578-1.36-1.167c-0.051-0.138-0.086-0.282-0.102-0.434c-0.002-0.021-0.005-0.041-0.007-0.063
				c-0.004-0.049-0.003,0.463-0.003,0.412c0-0.071,0.013,0.354,0.02,0.354c-0.002,0-0.005,0-0.007,0
				c-0.291,0-0.583-0.671-0.827-0.809c-0.325-0.205-0.627-0.811-0.783-1.194c-0.022-0.054,0.041-0.247,0.026-0.302
				C19.908,43.12,20,43.036,20,43.089V43.104z"/>
			<path style="fill:none;" d="M31.279,44.126c0.141-0.785,0.773-1.401,1.569-1.509c0.043,0.009,0.08,0.016,0.124,0.022
				c0.012,0.095,0.048,0.188,0.074,0.277c-0.024-0.089-0.043-0.182-0.056-0.277c-0.044-0.006-0.092-0.013-0.135-0.022
				c-0.627-0.13-1.139-0.578-1.36-1.167c-0.735,0.011-1.33,0.611-1.33,1.349C30.166,43.462,30.647,44.014,31.279,44.126z"/>
			<path style="fill:none;" d="M19.615,42.617c0.043,0.009,0.078,0.016,0.123,0.022c0.013,0.098,0.05,0.194,0.075,0.287
				c-0.026-0.093-0.044-0.188-0.057-0.287c-0.044-0.006-0.088-0.013-0.132-0.022c-0.627-0.13-1.138-0.577-1.359-1.167
				c-0.735,0.011-1.33,0.611-1.33,1.349c0,0.663,0.481,1.214,1.112,1.326C18.187,43.341,18.819,42.725,19.615,42.617z"/>
			<path style="fill:none;" d="M18,47.393v0.015c1-0.559,0.862-0.943,1.461-1.076c-0.002-0.001,0.134,0.039,0.134,0.039
				c0.002,0,0.003,0,0.005,0c-0.803,0-1.438-0.803-1.554-1.609c-0.002-0.001-0.005-0.023-0.005-0.023
				c-0.627,0.116-1.248,0.655-1.248,1.315C16.793,46.798,18,47.393,18,47.393z"/>
			<path style="fill:none;" d="M22,43.744v0.014c0-0.564,0.519-0.989,1.126-1.118c-0.004-0.001-0.106-0.001-0.11-0.002
				c-0.816-0.11-1.521-0.755-1.639-1.568c-0.259,0.049-0.543,0.171-0.703,0.345c-0.244,0.246-0.435,0.593-0.435,0.979
				c0,0.385,0.361,0.733,0.605,0.979C21.087,43.602,21,43.744,22,43.744z"/>
			<path style="fill:none;" d="M29.674,45.779c0.021,0.004,0.041,0.007,0.062,0.01c-0.019-0.002-0.038-0.006-0.058-0.01
				c0.084-0.584,0.452-1.08,0.949-1.356c-0.001,0-0.002-0.001-0.003-0.002c-0.48-0.266-0.828-0.738-0.928-1.296
				c-0.019-0.106-0.025-0.214-0.025-0.326c0-0.05,0.01-0.099,0.014-0.148c-0.018-0.002-0.038-0.003-0.059-0.005
				c0.015,0.002,0.029,0.003,0.044,0.005c-0.003,0.049-0.006,0.097-0.006,0.148c0,0.111,0.01,0.22,0.029,0.326
				c-0.634,0.111-1.117,0.664-1.117,1.328C28.575,45.114,29.045,45.665,29.674,45.779z"/>
			<path style="fill:none;" d="M27.311,47.427c0.159,0.175,0.404,0.301,0.664,0.349c0.141-0.785,0.777-1.401,1.572-1.509
				c-0.627-0.13-1.139-0.577-1.359-1.166c-0.344,0.009-0.638,0.147-0.878,0.369c-0.325,0.247-0.423,0.594-0.423,0.979
				C26.887,46.834,26.986,47.181,27.311,47.427z"/>
			<path style="fill:none;" d="M21.965,44.453c0,0.661,0.484,1.212,1.112,1.326c0.084-0.584,0.435-1.081,0.931-1.356
				c-0.001-0.001-0.002-0.001-0.002-0.002c-0.39-0.216-0.694-0.568-0.849-0.992c-0.024-0.065-0.044-0.132-0.06-0.201
				c-0.008-0.034-0.015-0.068-0.022-0.103C22.442,43.239,21.965,43.79,21.965,44.453z"/>
			<path style="fill:none;" d="M24.65,45.086c-0.628,0.115-1.05,0.473-1.05,1.134c0,0.744,0.4,1.173,1.4,1.173v0.015
				c0-0.565,0.68-0.993,1.29-1.118c0.03,0.003,0.036,0.007,0.07,0.01c0.011,0.001,0.006,0.002,0.017,0.002
				c-0.004,0.049-0.014,0.099-0.014,0.149c0,0.111,0.007,0.222,0.025,0.327c-0.623,0.109-1.102,0.649-1.117,1.299
				c0,0-0.012,0.019-0.012,0.029c0,0.661,0.468,1.209,1.097,1.324c0.047,0.009,0.089,0.015,0.133,0.019
				c-0.037-0.004-0.073-0.011-0.119-0.019c0.082-0.572,0.453-1.06,0.94-1.339c0-0.004,0.004,0.139,0.01,0.134
				c-0.001,0-0.002,0.147-0.002,0.147h-0.005c-0.011,0-0.003-0.164-0.003-0.171c-0.487-0.269-0.815-0.805-0.912-1.351
				c-0.019-0.106-0.035-0.215-0.035-0.326c0-0.05-0.002-0.152,0.002-0.152c-0.012,0-0.024,0-0.037,0c-0.03,0-0.06-0.042-0.089-0.046
				c-0.817-0.111-1.467-0.77-1.584-1.585c-0.004-0.028,0.17-0.06,0.168-0.089C24.823,44.645,25,44.573,25,44.568
				c0,0.006,0,0.803,0,0.803s-0.356,0-0.357,0C24.646,45.371,24.647,45.059,24.65,45.086z"/>
			<path style="fill:none;" d="M21.336,41.004c0.001,0.012,0.002,0.024,0.003,0.035C21.345,41.027,21.349,41.015,21.336,41.004z"/>
			<path style="fill:none;" d="M34.571,40.626c-0.001,0-0.001-0.001-0.002-0.001c-0.002,0.025-0.004,0.051-0.005,0.075
				C34.566,40.676,34.569,40.651,34.571,40.626z"/>
			<path style="fill:none;" d="M42.239,37.371c-0.044,0-0.087-0.114-0.131-0.112c-0.164,0.008-0.3-0.038-0.411-0.026
				c-0.118,1.816-0.297,2.525-0.498,2.905l0.186,0.658c0.398-1.13,0.693-2.425,0.877-3.425
				C42.254,37.371,42.246,37.371,42.239,37.371z"/>
			<path style="fill:none;" d="M36.391,42.168C36.392,42.168,36.392,42.168,36.391,42.168c0.002,0,0.002-0.01,0.002-0.01
				c0.068-0.179,0.164-0.351,0.281-0.499c-0.498-0.22-1.045-0.469-1.606-0.758C35.114,41.598,35.686,42.168,36.391,42.168z"/>
			<path style="fill:none;" d="M32,40.766c0,0,0,0.024,0,0.034c0,0.66,0.42,1.212,1.047,1.329c0.082-0.573,0.384-1.061,0.871-1.339
				c0-0.006,0.01-0.012,0.021-0.019c0.166,0.092,0.343,0.157,0.536,0.194c-0.194-0.041-0.372-0.128-0.542-0.199
				c-0.011,0-0.042-0.007-0.042-0.014c-0.408-0.224-0.689-0.583-0.828-1.012c-0.137-0.022-0.269-0.051-0.491-0.082
				C32.202,39.889,32,40.292,32,40.766z"/>
			<path style="fill:none;" d="M31.448,40.094v0.014c0.207-0.197,0.214-0.376,0.359-0.533c-0.46-0.051-0.94-0.092-1.371-0.092
				c-0.022,0-0.074,0-0.095,0C30.586,39.85,31.034,40.094,31.448,40.094z"/>
			<polygon style="fill:none;" points="28.172,39.913 28.173,39.915 28.175,39.912 			"/>
			<path style="fill:none;" d="M29.792,42.152c0.249-0.665,0.666-1.15,1.403-1.201C31.192,40.902,31,40.851,31,40.8
				c0-0.011,0-0.034,0-0.034c0-0.04,0.194-0.06,0.198-0.08c0.005-0.02,0.107-0.041,0.11-0.082c-0.69-0.078-1.233-0.48-1.511-1.075
				c-0.014,0.003,0.002,0.006,0,0.006c-0.252,0.084-0.538,0.16-0.852,0.228c-0.28,0.224-0.464,0.554-0.495,0.928
				c0.08,0.268,0.136,0.515,0.161,0.74C28.837,41.854,29.284,42.145,29.792,42.152z"/>
			<path style="fill:none;" d="M23.686,15.095c-8.707,0-16.048,6.058-18.173,14.25c0.907-0.231,1.571-0.412,2.118-0.562l0.043-0.012
				c0.052-0.014,0.103-0.028,0.153-0.042c2.228-6.591,8.47-11.349,15.803-11.349c7.507,0,13.87,4.987,15.955,11.821
				c0.158-0.022,0.314-0.036,0.468-0.036c0.439,0,0.822,0.107,1.139,0.319c0.402,0.268,0.621,0.566,0.736,0.844
				c0.054-0.002,0.106-0.005,0.157-0.007C40.309,21.639,32.735,15.095,23.686,15.095z"/>
			<path style="fill:none;" d="M10.362,42.457c0.326,0.566,0.688,1.11,1.083,1.627c0.154-0.766,0.782-1.36,1.563-1.467
				c-0.52-0.108-0.959-0.435-1.219-0.88c-0.1-0.083-0.2-0.175-0.301-0.274C10.943,41.536,10.498,41.934,10.362,42.457z"/>
			<path style="fill:none;" d="M9.023,39.202c-0.021-0.005-0.041-0.01-0.062-0.016c0.004,0.015,0.008,0.03,0.013,0.045
				C8.99,39.221,9.006,39.212,9.023,39.202z"/>
			<path style="fill:none;" d="M16,40.8c0,0.738,0.185,1.551,0.92,1.562c0.249-0.665,0.472-0.991,1.261-0.991h-0.043
				c0,0-0.073-0.31-0.073-0.36C18.065,41,18,40.766,18,40.766c0-0.014,0-0.025,0-0.037c-1-0.045-1.445-0.133-2.419-0.262
				C15.552,40.57,16,40.672,16,40.766C16,40.766,16,40.79,16,40.8z"/>
			<path style="fill:none;" d="M14.089,43.373C14.333,43.602,15,43.744,15,43.744v0.014c1-0.565,0.688-0.387,1.298-0.387
				c0.002,0,0.01,0,0.012,0c0.039,0,0.085-0.357,0.124-0.354c-0.004,0.049-0.006-0.085-0.006-0.035c0,0.111,0.011,0.129,0.029,0.234
				c-0.634,0.111-1.119,0.618-1.119,1.282c0,0.661,0.472,1.189,1.101,1.303c0.008,0.002,0.016-0.009,0.024-0.007
				c-0.007-0.002-0.014-0.008-0.021-0.01c0.084-0.584,0.455-1.084,0.952-1.359c-0.001-0.001-0.002-0.002-0.002-0.003
				c-0.48-0.266-0.829-0.739-0.928-1.297c-0.019-0.106-0.027-0.215-0.027-0.326c0-0.05,0.008-0.099,0.012-0.148
				c0.011,0.001,0.019,0.001,0.028,0.002c-0.009-0.001-0.018-0.002-0.028-0.002c-0.041-0.002-0.093-0.007-0.133-0.012
				c-0.816-0.111-1.466-0.756-1.583-1.571c-0.024,0.004-0.048,0.01-0.072,0.016c-0.189,0.546-0.519,0.852-0.827,1.023
				c-0.059,0.033-0.119,0.061-0.181,0.085c-0.009,0.066-0.006,0.133-0.006,0.202C13.647,42.779,13.845,43.127,14.089,43.373z"/>
			<path style="fill:none;" d="M10.05,41.889c0.228-0.382,0.602-0.701,1.042-0.851c-0.327-0.376-0.67-0.823-1.047-1.328
				c-0.062-0.083-0.128-0.171-0.19-0.254c-0.26,0.016-0.514,0.115-0.723,0.273C9.382,40.477,9.69,41.198,10.05,41.889z"/>
			<path style="fill:none;" d="M21.83,40.8c0,0.725,0.57,1.317,1.286,1.349c-0.187-0.117-0.365-0.277-0.531-0.48
				c-0.284-0.348-0.51-0.695-0.681-0.995c-0.021,0.002-0.042,0.004-0.063,0.005c-0.003,0.033-0.005,0.063-0.006,0.087
				C21.835,40.766,21.83,40.79,21.83,40.8z"/>
			<path style="fill:none;" d="M26.476,46.371c0.007,0,0.023,0,0.023,0s-0.002,0-0.008,0c0.151-1,0.375-1.027,0.781-1.241
				C27.509,44.996,28,44.626,28,44.603c0-0.001,0-0.002,0-0.002c0-0.049,0.032-0.097,0.032-0.148c0-0.071,0.023-0.141,0.031-0.21
				c0.027,0.002,0.082,0.003,0.109,0.003c-0.024-0.001-0.054-0.002-0.08-0.003c-0.291-0.019-0.54-0.106-0.784-0.245
				c-0.064-0.034-0.119-0.071-0.172-0.11c-0.135,0.034-0.279,0.052-0.432,0.052c-0.254,0-0.511-0.054-0.765-0.16
				c-0.148-0.062-0.296-0.142-0.442-0.235c-0.217,0.239-0.355,0.843-0.355,1.187C25.143,45.47,25.74,46.371,26.476,46.371z"/>
			<path style="fill:none;" d="M24.67,44.127c0.059-0.331,0.209-0.631,0.42-0.877c-0.331-0.267-0.643-0.584-0.915-0.892
				c-0.086,0.016-0.175,0.024-0.265,0.024c-0.096,0-0.19-0.009-0.282-0.027c-0.049,0.139-0.076,0.289-0.076,0.445
				C23.552,43.464,24.037,44.016,24.67,44.127z"/>
			<path style="fill:none;" d="M18.652,40.8c0,0.659,0.474,1.209,1.099,1.327c0.083-0.571,0.413-1.059,0.9-1.338
				c0-0.006,0.028-0.012,0.038-0.019c0.168,0.093,0.357,0.159,0.554,0.196c-0.163-0.04-0.39-0.128-0.563-0.201
				c-0.011,0-0.029-0.007-0.029-0.014c-0.001-0.001-0.002-0.001-0.003-0.002c-0.302,0.011-0.632,0.017-0.988,0.017
				c-0.332,0-0.668-0.007-1.005-0.018c0,0.005-0.001,0.011-0.001,0.016C18.653,40.766,18.652,40.79,18.652,40.8z"/>
			<path style="fill:none;" d="M28.347,43.758c0-0.565,0.661-0.993,1.271-1.119c-0.367-0.05-0.735-0.209-1.001-0.443
				c-0.119,0.558-0.363,1.109-0.833,1.437c0.167,0.071,0.564,0.111,0.564,0.111V43.758z"/>
			<path style="fill:none;" d="M35,43.744v0.014c0-0.565,0.637-1.001,1.247-1.127c0.037,0.006,0.033,0.004,0.073,0.004
				c-0.003,0.081-0.012-0.046-0.008-0.002c-0.001-0.044-0.034,0.738-0.031-0.262c-0.002,0-0.002,0-0.004,0
				c-0.039,0-0.083,0.133-0.122,0.128c-0.815-0.111-1.472-0.68-1.59-1.494c-0.258,0.049-0.516,0.204-0.676,0.378
				c-0.244,0.246-0.423,0.609-0.423,0.995c0,0.385,0.288,0.741,0.532,0.987C34.242,43.593,35,43.744,35,43.744z"/>
			<path style="fill:none;" d="M24.004,37.121c-0.479-0.266-0.829-0.737-0.929-1.295c-0.632,0.113-1.11,0.664-1.11,1.327
				c0,0.661,0.483,1.211,1.111,1.326C23.16,37.894,23.506,37.397,24.004,37.121z"/>
			<path style="fill:none;" d="M27.311,38.171c-0.17,0.124-0.265,0.274-0.329,0.442l0.008-0.001c0.582-0.077,1.102-0.162,1.532-0.25
				c-0.142-0.164-0.256-0.353-0.333-0.56C27.844,37.81,27.551,37.948,27.311,38.171z"/>
			<path style="fill:none;" d="M27.561,36.698C27.157,36.493,27,36.176,27,35.795v0.009c-1,0-1.602,1.04-1.602,1.784
				c0,0.738,0.41,0.784,1.146,1.784c0.006,0-0.011,0-0.011,0s-0.019,0-0.025,0c0.151-1,0.367-1.177,0.773-1.391
				c0.237-0.134,0.72-0.654,0.72-0.677c0-0.001,0-0.002,0-0.002c0-0.049,0.032-0.097,0.032-0.148c0-0.071,0.023-0.141,0.031-0.21
				c0.027,0.002,0.082,0.003,0.109,0.003c-0.024-0.001,0.072-0.002,0.046-0.003C27.927,36.923,27.805,36.836,27.561,36.698z"/>
			<path style="fill:none;" d="M33.889,37.545c0.244-0.138,0.51-0.224,0.798-0.244c0.003,0.033,0.007,0.066,0.011,0.098
				c-0.004-0.032-0.008-0.064-0.01-0.097c-0.004-0.049-0.011,0.115-0.011,0.065c0-0.071-0.006,0.004,0.002,0.004
				c-0.002,0-0.002,0-0.004,0c-0.291,0-0.543-0.321-0.786-0.459c-0.325-0.206-0.629-0.634-0.785-1.018
				c-0.02-0.05-0.076-0.156-0.091-0.209C33.027,35.739,33,35.738,33,35.789v0.015c-1,0-1.297,0.605-1.297,1.349
				c0,0.384,0.184,0.736,0.444,0.986c0.4,0.047,0.77,0.1,1.031,0.141C33.349,37.975,33.621,37.719,33.889,37.545z"/>
			<path style="fill:none;" d="M31.272,37.331c-0.367,0.207-0.681,0.341-0.879,0.638c0.022,0,0.043,0.026,0.065,0.026
				c0.324,0,0.676-0.02,1.024,0.009c-0.101-0.194-0.17-0.259-0.202-0.673H31.272z"/>
			<path style="fill:none;" d="M26.835,42.423c0.222-0.157,0.266-0.603,0.266-0.646v-0.001c0-0.064,0.035-0.139,0.024-0.222
				c-0.21,0.231-0.289,0.522-0.289,0.841C26.836,42.404,26.836,42.413,26.835,42.423z"/>
			<path style="fill:none;" d="M15.303,47.646c0.581,0.374,1.188,0.709,1.82,1.001c0.283-0.226,0.63-0.37,1.01-0.396
				c0-0.049,0.005-0.096,0.005-0.145c0-0.011,0.011-0.029,0.011-0.029c0.001-0.081,0.011-0.123,0.017-0.181
				c0.041,0.002,0.048,0.002,0.129,0.002c-0.081,0-0.091-0.002-0.132-0.004c-0.717-0.048-1.33-0.504-1.595-1.138
				C15.997,46.764,15.496,47.133,15.303,47.646z"/>
			<path style="fill:none;" d="M24.27,40.486l-0.027-0.032l-0.009-0.002c0,0-0.006,0.007-0.008,0.015
				c-0.472-0.185-0.847-0.559-1.038-1.028c-0.058-0.142-0.093-0.293-0.114-0.45c-0.044-0.006-0.097-0.013-0.141-0.022
				c-0.627-0.13-1.138-0.577-1.359-1.167c-0.007-0.02-0.015-0.041-0.022-0.061c-0.045-0.14-0.074-0.285-0.086-0.437
				c-0.004-0.049-0.002,0.115-0.002,0.065c0-0.071,0.013,0.004,0.02,0.004c-0.002,0-0.005,0-0.007,0
				c-0.291,0-0.583-0.321-0.827-0.459c-0.325-0.206-0.627-0.633-0.783-1.016c-0.022-0.054,0.041-0.162,0.026-0.218
				C19.908,35.734,20,35.736,20,35.789v0.015c0,0-1.421,0.605-1.421,1.349c0,0.736,0.56,1.334,1.292,1.348
				c0.151-0.404,0.475-0.742,0.8-0.956c0.244-0.138,0.502-0.224,0.791-0.244c0.012,0.153,0.04,0.3,0.088,0.44
				c0.006,0.019,0.011,0.04,0.019,0.059c-0.351,0.005-0.672,0.145-0.916,0.37c-0.244,0.246-0.416,0.593-0.416,0.979
				c0,0.051,0.005,0.1,0.012,0.15c0.947-0.021,1.633-0.086,1.987-0.129l0.085-0.01c0.188-0.096,0.395-0.164,0.61-0.193
				c0.043,0.009,0.499,0.016,0.543,0.022C23.493,39.146,24,39.297,24,39.439v0.015c0,0-0.577,0.008-0.655,0.022l-0.158,0.104
				c0.139,0.29,0.276,0.727,0.633,1.164c0.096,0.118,0.102,0.157,0.13,0.171l0.381-0.383l-0.039-0.032L24.27,40.486z"/>
			<path style="fill:none;" d="M23.168,35.356c0,0-0.042-0.004-0.081-0.007v0.003C23.087,35.355,23.168,35.356,23.168,35.356
				L23.168,35.356z"/>
			<path style="fill:none;" d="M34.802,37.8c-0.022-0.059-0.041-0.119-0.058-0.181C34.759,37.681,34.779,37.741,34.802,37.8
				c-0.352,0.005-0.668,0.145-0.912,0.37c-0.048,0.068-0.116,0.145-0.178,0.227l0.071,0.048c0.479,0.323,0.986,0.624,1.492,0.899
				c0.252-0.198,0.555-0.332,0.888-0.378C35.535,38.837,35.022,38.39,34.802,37.8z"/>
			<path style="fill:none;" d="M38,37.41c0,0.003,0,0.005,0,0.008c-1,0.115-1.17,0.665-1.17,1.326c0,0.584,0.346,1.083,0.861,1.27
				c0.213-0.59,0.373-1.197,0.511-1.819c-0.156-0.228-0.212-0.492-0.253-0.777C37.95,37.415,38,37.413,38,37.41z"/>
			<path style="fill:none;" d="M39,34.371v-0.313c0-1.104,0.036-2.193-0.184-3.235c-0.034,0.009,0.015,0.017-0.02,0.026
				c-0.631,0.161-1.306,0.34-1.983,0.31c-0.938-0.047-4.471-0.65-7.287-1.147l-2.041-0.362l1.801-0.982
				c-0.26-0.213-0.57-0.524-0.948-0.907c-0.257-0.26-0.494-0.501-0.671-0.653c-0.436-0.374-0.955-1.135-1.115-1.377l-0.102-0.028
				l-0.498-0.664c-0.151-0.201-0.459-0.562-0.609-0.734c-0.366,0.069-1.572,0.392-2.751,1.796c-1.206,1.436-2.41,2.271-2.872,2.564
				l-0.172,0.109l-0.204,0.004c-1.799,0.036-8.552,0.719-9.634,0.974c-0.426,0.1-0.793,0.2-1.212,0.314
				C8.163,31.34,8,32.678,8,34.058v0.313H4.895c0.015,2,0.072,1.578,0.167,2.29c0.118,0.023,0.209,0.099,0.276,0.12l0.1,0.058
				l0.087,0.071c0.07,0.045,0.246,0.041,0.443-0.026l0.269-0.088l0.26,0.116c0.237,0.104,0.594,0.454,1.019,0.583
				c-0.112-0.763-0.171-1.125-0.171-2.125h1.007c0,1,0.024,0.752,0.071,1.235c0.258-0.526,0.847-1.033,1.428-1.154
				C9.871,35.455,10,35.344,10,35.347c0-0.004,0-0.011,0-0.017c0-0.003-0.129,0.041-0.14,0.041c0,0-0.025,0-0.025,0
				c0,0-0.012,0-0.013,0c-0.04,0-0.076,0.202-0.116,0.196c-0.345-0.047-0.667-0.196-0.925-0.196h1.147h0.512
				c-0.078,0-0.124,0.144-0.124,0.344c0,0.663,0.48,1.111,1.111,1.224c0.14-0.786,0.784-1.457,1.581-1.565
				c0.043,0.009-0.043-0.012,0.001-0.006c0.021,0.158-0.01,0.28-0.01,0.422v0.015c-1,0-1.219,1.04-1.219,1.784
				c0,0.738,0.752,0.784,1.487,1.784c0.006,0,0.009,0,0.009,0s-0.003,0-0.01,0c0.151-1,0.479-1.177,0.885-1.391
				C14.391,37.845,15,37.325,15,37.303c0-0.001,0-0.002,0-0.002c0-0.049-0.085-0.097-0.085-0.148c0-0.071-0.046-0.141-0.038-0.21
				c0.011,0.001,0.008,0.002,0.021,0.002c-0.009-0.001-0.024-0.001-0.032-0.002c-0.291-0.019-0.546-0.106-0.79-0.244
				c-0.406-0.205-0.639-0.525-0.795-0.909c-0.058-0.142-0.114-0.292-0.135-0.45c0.08,0.011,0.169,0.017,0.25,0.017l0,0
				c-0.081,0-0.17-0.011-0.25-0.022c-0.044-0.006-0.1,0.208-0.143,0.199c-0.296-0.061-0.56-0.162-0.786-0.162h1.205h0.214
				c-0.006,0,0.002-0.113,0.002-0.061c0,0.386,0.207,0.63,0.451,0.876C14.333,36.415,15,36.444,15,36.444v0.014
				c1-0.565,0.718-0.993,1.328-1.119c0.04,0.006,0.077,0.01,0.117,0.013c-0.004,0.049-0.012,0.097-0.012,0.148
				c0,0.111,0.008,0.22,0.026,0.326c-0.634,0.111-1.12,0.664-1.12,1.328c0,0.661,0.471,1.212,1.1,1.327
				c0.084-0.586,0.453-1.083,0.951-1.359c0.049,0.027,0.099,0.052,0.15,0.075c-0.05-0.024-0.101-0.048-0.149-0.075
				c-0.48-0.266-0.829-0.737-0.928-1.296c-0.019-0.106-0.027-0.214-0.027-0.326c0-0.05-0.005-0.099-0.001-0.148
				c0.043,0.002,0.046,0.005,0.127,0.005l0,0c-0.081,0-0.084-0.007-0.127-0.01c-0.041-0.003-0.085,0.214-0.125,0.209
				c-0.345-0.047-0.654-0.184-0.912-0.184h1.191h0.468c-0.078,0-0.123,0.144-0.123,0.344c0,0.663,0.481,1.112,1.112,1.224
				c0.141-0.785,0.773-1.457,1.568-1.565c0.044,0.009,0.078-0.012,0.123-0.006c0.013,0.098,0.05,0.18,0.075,0.273
				c-0.026-0.093-0.044-0.195-0.057-0.294C19.836,35.357,20,35.36,20,35.36v-0.002c0,0-0.164-0.012-0.245-0.023
				c-0.044-0.006-0.088,0.208-0.131,0.199c-0.296-0.061-0.566-0.163-0.792-0.163h1.169h0.251c-0.006,0-0.017-0.113-0.017-0.061
				c0,0.386,0.36,0.63,0.603,0.876C21.082,36.415,21,36.444,22,36.444v0.014c0-0.563,0.54-0.996,1.148-1.124
				c-0.009-0.002-0.112,0.223-0.122,0.221c-0.345-0.047-0.754-0.184-1.012-0.184h1.155h0.505c-0.079,0-0.123,0.147-0.123,0.347
				c0,0.664,0.483,1.117,1.117,1.228c-0.019,0.106-0.03,0.171-0.03,0.282c0,0.062,0.003,0.143,0.009,0.143c-0.001,0-0.002,0-0.002,0
				c0.002,0,0.003,0.038,0.006,0.065c-0.628,0.115-1.05,0.651-1.05,1.312c0,0.744,0.4,1.346,1.4,1.346v0.014
				c0-0.523,0.607-0.927,1.155-1.085l-0.068-0.07c-0.729-0.176-1.306-0.783-1.414-1.535c-0.004-0.028-0.016-0.055-0.018-0.084
				c-0.006-0.059-0.013-0.119-0.013-0.181c0-0.111,0.009-0.22,0.028-0.326c0.141-0.786,0.777-1.402,1.573-1.51
				c0.044,0.009,0.089,0.016,0.133,0.022c0.001,0.001-0.013,0.002-0.013,0.003c0.07,0.009,0.109,0.014,0.19,0.014l0,0
				c-0.081,0-0.133-0.011-0.213-0.022c-0.044-0.006-0.063,0.208-0.106,0.199c-0.296-0.061-0.559-0.162-0.786-0.162h1.132h0.288
				c-0.006,0,0.006-0.113,0.006-0.061c0,0.386,0.011,0.63,0.336,0.876C27.452,36.415,28,36.444,28,36.444v0.014
				c0-0.565,0.835-0.993,1.444-1.119c0.04,0.006,0.133,0.01,0.174,0.013c-0.003,0.049,0.02,0.097,0.02,0.148
				c0,0.111,0.022,0.22,0.042,0.326c-0.634,0.111-1.11,0.664-1.11,1.328c0,0.436,0.212,0.824,0.534,1.071
				c0.092-0.025,0.178-0.05,0.254-0.075c0.124-0.041,0.273-0.072,0.447-0.093c0.16-0.396,0.457-0.724,0.827-0.93
				c-0.002-0.002-0.004-0.002-0.006-0.004c-0.48-0.266-0.828-0.737-0.928-1.296c-0.019-0.106-0.025-0.214-0.025-0.326
				c0-0.05-0.004-0.099,0-0.148c0.043,0.002,0.05,0.005,0.131,0.005l0,0c-0.081,0-0.088-0.007-0.131-0.01
				c-0.041-0.003-0.089,0.214-0.129,0.209c-0.345-0.047-0.654-0.184-0.912-0.184h1.199h0.461c-0.078,0-0.123,0.144-0.123,0.344
				c0,0.663,0.481,1.112,1.113,1.225c0.141-0.785,0.773-1.458,1.569-1.566c0.043,0.009,0.08-0.012,0.124-0.006
				c0.012,0.095,0.048,0.173,0.074,0.263c-0.024-0.089,0.337-0.189,0.324-0.284C33.451,35.357,33,35.36,34,35.36v-0.002
				c-1,0-0.549-0.012-0.629-0.023c-0.044-0.006-0.282,0.208-0.325,0.199c-0.296-0.061-0.756-0.163-0.982-0.163h1.177h0.244
				c-0.006,0-0.014-0.113-0.014-0.061c0,0.386,0.285,0.63,0.528,0.876C34.242,36.415,35,36.444,35,36.444v0.014
				c0-0.565,0.622-0.999,1.232-1.126c0.017,0.002-0.013,0,0.009,0.001c-0.008-0.001-0.043,0.223-0.051,0.222
				c-0.345-0.047-0.688-0.184-0.946-0.184h1.163h0.497c-0.078,0-0.123,0.144-0.123,0.344c0,0.664,0.483,1.114,1.117,1.225
				c-0.005,0.026-0.009-0.004-0.012,0.023c0.004-0.027,0.008-0.082,0.013-0.108c0.077-0.432,0.304-0.601,0.625-0.873
				c0.015-0.272,0.022-0.611,0.022-0.611h0.133h0.371h0.503c0,2-0.397,3.842-1.116,5.664c0.358,0.141,0.637,0.13,0.798,0.188
				l0.532-0.748c-0.041-0.171-0.095-0.522-0.004-0.786l0.054-0.17l0.098-0.107c0.044-0.094,0.237-0.626,0.353-2.869l0.025-0.479
				l0.448-0.169c0.3-0.113,0.737-0.184,1.298-0.211c0.067-0.003,0.133-0.005,0.2-0.005c0.062,0,0.123-0.109,0.185-0.107
				c0.027-0.358,0.045-0.2,0.053-1.2H39z"/>
			<path style="fill:none;" d="M50.636,35.491l-0.028-0.037c-0.112-0.156-0.449-0.715-0.512-1.845
				c-0.061-1.088,0.456-1.521,0.705-1.665c0.01-0.205,0.041-0.628,0.138-1.256c0.104-0.674-0.084-1.535-0.167-1.867
				c-0.194-0.026-0.391-0.039-0.59-0.039c-2.052,0-3.997,1.398-5.042,2.148l-0.014,0.01c-0.227,0.163-0.423,0.303-0.574,0.396
				c-0.068,0.042-0.148,0.08-0.237,0.115c0.116,0.907,0.178,1.849,0.178,2.737c0,0.663-0.029,1.283-0.084,1.904
				c0.54,0.176,1.114,0.396,1.742,0.637l0.07,0.027c0.352,0.135,0.715,0.062,1.093,0.2c1.488,0.545,3.078,0.415,3.893,0.415
				c0.018,0,0.035,0,0.051,0c-0.264,0-0.473-1.351-0.519-1.579L50.636,35.491z"/>
			<path style="fill:none;" d="M37.237,37.121c0.05,0.028,0.165,0.053,0.217,0.076C37.605,37.263,38,37.309,38,37.333
				c0,0,0-0.001,0-0.001c0-0.024-0.392-0.073-0.545-0.141c-0.052-0.022-0.289-0.08-0.339-0.08C36.636,36.868,37,36.379,36,35.821
				v0.55h0.154c0,0-1.032,0.392-1.032,1.055c0,0.661,0.519,1.076,1.147,1.191C36.353,38.031,36.739,37.397,37.237,37.121z"/>
			<path style="fill:none;" d="M36.421,39.439c-0.058-0.142-0.091-0.292-0.112-0.45c0.08,0.011,0.18,0.017,0.261,0.017
				c-0.081,0-0.18-0.027-0.261-0.027c-0.027,0-0.059-0.002-0.09-0.007c-0.019-0.002-0.037-0.001-0.052-0.004
				c0.015,0.003,0.033,0.006,0.052,0.009c0.024,0.004,0.052,0.009,0.077,0.012c0.021,0.158-0.086,0.308,0.121,0.45v0.015
				c-0.207,0-0.448,0.058-0.633,0.158c0.412,0.211,0.813,0.404,1.193,0.577C36.735,39.992,36.541,39.735,36.421,39.439z"/>
			<path style="fill:none;" d="M36.28,35.346c-0.007,0-0.013-0.002-0.02-0.003c0,0.065,0.016,0.083,0.016,0.129
				C36.277,35.427,36.277,35.409,36.28,35.346z"/>
			<polygon style="fill:none;" points="36.407,35.356 36.407,35.356 36.407,35.356 			"/>
			<path style="fill:none;" d="M25.269,40.766c0,0-0.011,0.024-0.011,0.034c0,0.661,0.469,1.214,1.097,1.33
				c0.065-0.459,0.317-0.863,0.661-1.149c-0.071-0.212-0.165-0.447-0.28-0.7c-0.146-0.19-0.256-0.409-0.32-0.646l-0.081-0.153
				C25.732,39.606,25.284,40.13,25.269,40.766z"/>
			<path style="fill:none;" d="M14.072,45.47c-0.235,0.237-0.42,0.569-0.432,0.936c0.394,0.338,0.805,0.655,1.232,0.951
				c0.249-0.564,0.771-0.98,1.398-1.082c0.006,0.002,0.013,0.004,0.02,0.006c-0.006-0.002-0.011-0.004-0.018-0.006
				c-0.606-0.171-1.096-0.59-1.311-1.164c0,0,0.004-0.009,0.004-0.011C14.64,45.109,14.313,45.247,14.072,45.47z"/>
			<path style="fill:none;" d="M12.934,46.047c0.098,0.025,0.201,0.324,0.306,0.324c0.006,0,0.019,0,0.019,0s-0.002,0-0.008,0
				c0.151-1,0.414-1.027,0.82-1.241c0.239-0.135,0.496-0.362,0.778-0.385c0-0.001-0.004-0.072-0.004-0.073
				c-0.004-0.049-0.008-0.133-0.008-0.183c0-0.071,0.002-0.159,0.01-0.228c0.011,0.001,0.023-0.007,0.036-0.007
				c-0.009-0.001-0.017-0.005-0.025-0.006c-0.291-0.019-0.543-0.109-0.786-0.248c-0.406-0.205-0.637-0.526-0.793-0.909
				c-0.058-0.142-0.1-0.293-0.121-0.451c-0.026-0.003-0.058-0.008-0.09-0.012c0.024,0.004-0.082,0.009-0.057,0.012
				c0.021,0.158-0.01,0.308-0.01,0.45v0.015c-1,0-1.22,0.605-1.22,1.349c0,0.08,0.072,0.301,0.086,0.377
				C12.183,45.204,12.582,45.706,12.934,46.047z"/>
			<path style="fill:none;" d="M42.47,33.371c-0.02,0-0.069-0.825-0.142-1.407c-0.353,0.02-0.706,0.407-1.032,0.407h-0.927
				l0.208-1.182c0.001-0.003,0.001-0.146,0.001-0.149c0-0.023-0.049-0.17-0.197-0.269c-0.027-0.018-0.11-0.108-0.328-0.108
				c-0.031,0-0.064-0.099-0.097-0.097c0.196,0.969,0.315,2.806,0.344,2.806H42.47z"/>
			<path style="fill:none;" d="M6.96,33.371c0.032,0,0.176-2.052,0.41-3.085c-0.519,0.14-1.142,0.346-1.933,0.544
				c-0.09,0.022-0.18-0.016-0.27,0.009c-0.143,0.85-0.232,2.531-0.263,2.531H6.96z"/>
			<path style="fill:none;" d="M3.019,31.732c-1.099,0.487-2.061,1.022-2.649,1.349c-0.074,0.041-0.142,0.079-0.202,0.112
				L0.083,33.24l-0.039,0.015C0.033,33.275,0,33.35,0,33.526c0,0.017,0.017,0.064,0.083,0.138l0.371,0.419L0.146,34.55
				c-0.008,0.013-0.017,0.029-0.025,0.047c-0.088,0.205-0.088,0.205,0.172,0.394l0.007,0.005c0.089,0.065,0.199,0.145,0.322,0.25
				c0.636,0.545,1.52,0.88,2.364,1.104c-0.07-0.706-0.109-1.423-0.109-2.163C2.877,33.394,2.926,32.547,3.019,31.732z"/>
			<path style="fill:none;" d="M15,37.807v-0.003c0-0.001-0.022-0.002-0.022-0.002c-0.346,0.008-0.657,0.147-0.897,0.37
				c-0.188,0.156-0.31,0.353-0.376,0.574l0.482,0.082c0.575,0.098,1.146,0.179,1.714,0.247c0.122-0.048,0.268-0.083,0.401-0.104
				C15.691,38.8,16,38.384,15,37.807z"/>
			<path style="fill:none;" d="M12.228,40.114c0.35,0.399,0.688,0.718,0.878,0.718c0.013,0,0.016-0.002,0.018-0.003
				c0.147-0.082,0.231-0.373,0.234-0.781c-0.098-0.176-0.168-0.369-0.204-0.573C12.76,39.544,12.425,39.783,12.228,40.114z"/>
			<path style="fill:none;" d="M18.052,37.418c-0.002-0.009-0.002-0.019-0.002-0.028c0-0.019,0.002-0.037,0.002-0.056
				c0-0.059-0.019-0.119-0.019-0.181c0-0.091-0.002-0.179,0.007-0.267c-0.012,0.087-0.016,0.177-0.016,0.268
				c0,0.062,0.003,0.123,0.009,0.182c0.002,0.028,0.006,0.058,0.01,0.085c-0.628,0.115-1.108,0.669-1.108,1.33
				c0,0.151,0.025,0.299,0.071,0.437c0.649,0.056,1.29,0.092,1.923,0.107c0.206-0.147,0.442-0.254,0.698-0.307
				C18.808,38.878,18.168,38.232,18.052,37.418z"/>
			<path style="fill:none;" d="M9.929,35.356L9.929,35.356c0,0-0.008-0.003-0.019-0.008C9.921,35.353,9.929,35.356,9.929,35.356z"/>
			<path style="fill:none;" d="M13.008,38.988c-0.817-0.11-1.468-0.756-1.585-1.571c-0.004-0.028-0.009-0.055-0.012-0.084
				c-0.001-0.008-0.005-0.017-0.006-0.025c-0.003-0.033,0.189-0.066,0.186-0.1c-0.001,0.033,0.194,0.067,0.194,0.1v0.001
				c0,0.008-0.202,0.141-0.202,0.149c-0.244-0.032-0.527-0.088-0.722-0.088h-0.038c-0.479,0-0.854-0.862-0.954-1.419
				c-0.648,0.113-1.125,0.598-1.125,1.261c0,0.174,0.026,0.307,0.086,0.459c0.389,0.103,0.786,0.189,1.171,0.283
				c0.166-0.343,0.734-0.635,1.068-0.82C11.264,37.243,12,37.313,12,37.345v0.026h-0.596c0.003,0,0.018,0.038,0.022,0.065
				c-0.389,0.071-0.721,0.302-0.918,0.63l0.13,0.029l0.156,0.19c0.113,0.138,0.27,0.348,0.422,0.552
				c0.164,0.22,0.41,0.548,0.674,0.875C12.156,39.348,12.551,39.083,13.008,38.988z"/>
			<path style="fill:#F1F9FC;" d="M41.384,40.666l0.011,0.034l-0.044,0.057c-2.628,7.342-9.554,12.6-17.665,12.6
				c-8.96,0-16.475-6.416-18.346-14.971c-0.175-0.03-0.341-0.085-0.493-0.166c-0.117-0.024-0.337-0.063-0.467-0.086
				c-0.342-0.06-0.747-0.131-1.184-0.228c1.719,9.911,10.252,17.464,20.491,17.464c10.353,0,18.962-7.723,20.546-17.797
				c-0.749-0.259-1.398-0.429-1.971-0.433C42.078,38.357,41.782,39.536,41.384,40.666z"/>
			<path style="fill:#F1F9FC;" d="M8,34.371v-0.313c0-1.38,0.163-2.718,0.498-3.994c-0.137,0.037-0.284,0.076-0.433,0.117
				l-0.046,0.012c-0.199,0.054-0.413,0.029-0.648,0.093c-0.233,1.032-0.378,3.085-0.411,3.085H4.904c0.031,0,0.12-1.66,0.263-2.511
				c-0.73,0.203-1.465,0.527-2.147,0.83c-0.093,0.815-0.142,1.683-0.142,2.477c0,0.741,0.039,1.468,0.109,2.174
				c0.605,0.16,1.19,0.269,1.646,0.349c0.173,0.03,0.315-0.053,0.43-0.031c-0.095-0.713-0.152-0.288-0.167-2.288H8z"/>
			<path style="fill:#F1F9FC;" d="M39.049,35.371h-0.371h-0.133c0,0-0.007,0.325-0.022,0.597c-0.322,0.272-0.548,0.54-0.625,0.972
				c-0.005,0.026-0.009-0.004-0.013,0.023c0.003-0.027,0.007-0.082,0.012-0.108c-0.634-0.111-1.117-0.462-1.117-1.126
				c0-0.2,0.045-0.358,0.123-0.358h-0.497h-1.163c0.258,0,0.573,0.137,0.919,0.184c0.008,0.001,0.016-0.11,0.024-0.109
				c-0.022,0,0.062-0.055,0.045-0.057C35.622,35.515,35,35.892,35,36.458v-0.014c0,0-0.758-0.142-1.002-0.371
				c-0.244-0.246-0.474-0.377-0.474-0.763c0-0.052-0.047,0.061-0.04,0.061H33.24h-1.177c0.226,0,0.496,0.101,0.792,0.162
				c0.043,0.009,0.471-0.092,0.515-0.086C33.451,35.458,33,35.351,34,35.351v0.003c-1,0-0.549-0.005-0.63-0.016
				c0.013,0.095-0.158,0.188-0.134,0.278c-0.026-0.089-0.157-0.182-0.169-0.277c-0.044-0.006-0.129-0.013-0.172-0.022
				c-0.796,0.108-1.452,0.724-1.593,1.509c-0.632-0.113-1.125-0.449-1.125-1.111c0-0.2,0.033-0.344,0.111-0.344h-0.461h-1.199
				c0.258,0,0.573,0.137,0.919,0.184c0.04,0.005,0.181-0.098,0.222-0.096c0.043,0.003,0.23-0.108,0.23-0.108v0.003
				c0,0-0.187-0.001-0.23-0.003c-0.004,0.049-0.057,0.098-0.057,0.149c0,0.111-0.015,0.22,0.004,0.326
				c0.1,0.559,0.438,1.031,0.918,1.296c0.002,0.002,0,0.003,0.001,0.004c-0.369,0.206-0.669,0.534-0.829,0.93
				c0.17-0.021,0.365-0.064,0.588-0.066c0.198-0.296,0.51-0.618,0.877-0.618h0.008c0.032,0,0.101,0.472,0.202,0.666
				c0.234,0.02,0.465,0.06,0.685,0.086c-0.26-0.25-0.463-0.595-0.463-0.978c0-0.744,0.297-1.341,1.297-1.341v-0.015
				c0-0.051,0.027-0.103,0.013-0.156c0.015,0.053,0.052,0.106,0.072,0.156c0.156,0.383,0.47,0.917,0.795,1.123
				c0.244,0.138,0.505,0.459,0.796,0.459c0.002,0,0.002,0,0.004,0c-0.008,0-0.002-0.075-0.002-0.004c0,0.05,0.007-0.008,0.011,0.041
				c0.002,0.033,0.006,0.012,0.01,0.044c-0.005-0.032-0.008-0.092-0.011-0.125c-0.288,0.02-0.555,0.093-0.798,0.231
				c-0.268,0.174-0.531,0.423-0.701,0.729c0.129,0.02,0.235,0.035,0.308,0.047l0.155,0.025l0.06,0.04
				c0.063-0.083,0.13-0.16,0.178-0.228c0.244-0.226,0.56-0.366,0.911-0.371c-0.022-0.059-0.041-0.119-0.058-0.181
				c0.017,0.062,0.037,0.122,0.058,0.181c0.22,0.59,0.733,1.037,1.36,1.167c-0.332,0.045-0.636,0.18-0.888,0.378
				c0.169,0.092,0.634,0.181,0.801,0.267C36.26,39.512,36,39.454,37,39.454v-0.015c-1-0.142-0.391-0.292-0.413-0.45
				c-0.024-0.003-0.196-0.008-0.22-0.012c-0.019-0.002-0.111-0.006-0.126-0.009c0.015,0.003-0.004,0.002,0.015,0.004
				c0.031,0.005,0.045,0.007,0.072,0.007c0.08,0,0.17,0.027,0.251,0.027c-0.081,0-0.185-0.006-0.265-0.017
				c0.021,0.158,0.052,0.308,0.11,0.45c0.12,0.295,0.31,0.553,0.552,0.749c0.556,0.252,1.059,0.687,1.462,0.846
				c0.719-1.821,1.115-3.664,1.115-5.664H39.049z M36.407,35.356L36.407,35.356L36.407,35.356L36.407,35.356z M36.28,35.346
				c-0.003,0.063-0.004,0.081-0.004,0.127c0-0.046-0.016-0.064-0.016-0.129C36.267,35.344,36.274,35.345,36.28,35.346z
				 M36.311,38.48c-0.628-0.115-1.15-0.393-1.15-1.055c0-0.663,0.993-1.055,0.993-1.055H36v-0.55c1,0.558,0.603,1.047,1.083,1.291
				c0.05,0,0.238,0.058,0.29,0.08C37.527,37.258,38,37.308,38,37.332c0,0,0,0.001,0,0.001c0-0.024-0.395-0.07-0.546-0.136
				c-0.052-0.023-0.135-0.048-0.185-0.076C36.772,37.397,36.396,37.894,36.311,38.48z M37.662,40.014
				c-0.515-0.188-0.831-0.686-0.831-1.27c0-0.661,0.17-1.212,1.17-1.326c0-0.003,0-0.005,0-0.008c0,0.003-0.058,0.005-0.057,0.008
				c0.041,0.285,0.119,0.549,0.275,0.777C38.079,38.817,37.875,39.424,37.662,40.014z"/>
			<path style="fill:#F1F9FC;" d="M28.957,39.763c-0.255,0.055-0.52,0.105-0.782,0.15c-0.001,0.001-0.001,0.002-0.001,0.003
				c0.117,0.275,0.21,0.533,0.283,0.775C28.487,40.317,28.677,39.987,28.957,39.763z"/>
			<path style="fill:#F1F9FC;" d="M23.449,51.044c6.291,0,11.75-3.626,14.399-8.897c-0.337-0.134-0.736-0.299-1.173-0.492
				c-0.117,0.148-0.213,0.324-0.281,0.504c-0.001-0.001-0.001,0.01-0.002,0.01c0,0,0,0-0.001,0c-0.705,0-1.277-0.572-1.323-1.269
				c-0.165-0.085-0.331-0.178-0.497-0.268c-0.002,0.025-0.005,0.048-0.007,0.071c0.001-0.024,0.003-0.051,0.005-0.076
				c-0.497-0.27-0.995-0.564-1.471-0.879c-0.011-0.002-0.024-0.004-0.036-0.006c0.139,0.429,0.419,0.788,0.827,1.011
				c0,0.007,0.028,0.014,0.04,0.014c0.17,0.071,0.345,0.157,0.539,0.199c-0.193-0.037-0.377-0.102-0.543-0.194
				c-0.011,0.007-0.036,0.013-0.036,0.019c-0.487,0.279-0.76,0.767-0.842,1.339C32.42,42.012,32,41.46,32,40.8
				c0-0.011,0-0.034,0-0.034c0-0.474,0.202-0.877,0.572-1.108c-0.2-0.028-0.722-0.057-0.96-0.084C31.468,39.731,32,39.911,31,40.108
				v-0.014c0,0-0.627-0.244-0.872-0.611c-0.338,0.003-0.364,0.033-0.418,0.046c0.278,0.596,0.934,0.997,1.624,1.075
				c-0.003,0.041-0.165,0.062-0.169,0.082C31.161,40.706,31,40.727,31,40.766c0,0,0,0.024,0,0.034c0,0.05,0.192,0.102,0.196,0.15
				c-0.737,0.051-1.248,0.536-1.496,1.201c-0.509-0.007-0.716-0.298-0.941-0.721C28.777,41.596,29,41.751,29,41.894v0.05
				c0,0.084-0.213,0.168-0.231,0.252c0.266,0.233,0.402,0.392,0.769,0.443C28.928,42.765,28,43.192,28,43.758v-0.014
				c0,0-0.241-0.04-0.408-0.111c-0.164,0.115-0.299,0.203-0.505,0.254c0.053,0.039,0.134,0.077,0.198,0.11
				c0.244,0.139,0.508,0.226,0.799,0.245c0.026,0.002,0.067,0.002,0.091,0.003c-0.027,0-0.069-0.002-0.096-0.003
				c-0.008,0.069-0.049,0.139-0.049,0.21c0,0.05-0.03,0.099-0.03,0.148c0,0.001,0,0.002,0,0.002c-1,0.023-0.491,0.392-0.728,0.526
				c-0.406,0.214-0.563,0.241-0.714,1.241c0.006,0-0.025,0-0.025,0s-0.033,0-0.04,0c-0.736,0-1.341-0.901-1.341-1.639
				c0-0.344,0.134-0.805,0.351-1.044c-0.138-0.088-0.277-0.258-0.41-0.366c-0.211,0.246-0.362,0.51-0.421,0.841
				c-0.634-0.111-1.119-0.681-1.119-1.346c0-0.156,0.027-0.315,0.076-0.454c-0.178-0.035-0.349-0.108-0.512-0.21
				c-0.716-0.032-1.286-0.626-1.286-1.351c0-0.011,0.005-0.035,0.005-0.035c0.001-0.023,0.003-0.054,0.006-0.087
				c-0.331,0.029-0.73,0.054-1.193,0.071c0.001,0.001,0.002,0.001,0.003,0.002c0,0.007,0.017,0.014,0.029,0.014
				c0.173,0.072,0.4,0.16,0.563,0.201c-0.196-0.037-0.385-0.102-0.554-0.196c-0.011,0.007-0.038,0.013-0.038,0.019
				c-0.487,0.279-0.817,0.767-0.9,1.338c-0.625-0.118-1.099-0.668-1.099-1.327c0-0.011,0.002-0.034,0.002-0.034
				c0-0.005,0.001-0.011,0.001-0.016c-0.167-0.005-0.336-0.012-0.504-0.02c-0.001,0.012-0.001,0.023-0.001,0.037
				c0,0-0.031,0.024-0.031,0.034c0,0.05-0.024,0.101-0.024,0.149v0.001c-0.789,0.051-1.317,0.536-1.565,1.201
				c-0.736-0.011-1.321-0.613-1.321-1.352c0-0.011,0.003-0.034,0.003-0.034c0.002-0.094,0.023-0.197,0.051-0.299
				c-0.154-0.02-0.307-0.041-0.461-0.063c-0.024,0.261-0.074,0.485-0.142,0.68c0.024-0.006,0.048-0.012,0.073-0.016
				c0.117,0.815,0.767,1.46,1.583,1.571c0.041,0.006,0.092,0.01,0.133,0.012c0.011,0.001,0.02,0.002,0.028,0.002
				c-0.009-0.001-0.018-0.001-0.028-0.002c-0.004,0.049-0.012,0.097-0.012,0.148c0,0.111,0.007,0.22,0.027,0.326
				c0.099,0.558,0.448,1.031,0.928,1.296c0.001,0.001,0.002,0.001,0.002,0.002c-0.497,0.275-0.868,0.772-0.952,1.356
				c0.007,0.002,0.014,0.002,0.021,0.004c-0.008-0.002-0.016-0.002-0.024-0.004c-0.629-0.115-1.101-0.665-1.101-1.326
				c0-0.664,0.486-1.217,1.119-1.328c-0.019-0.106-0.028-0.214-0.028-0.326c0-0.05,0.003,0.267,0.007,0.218
				c-0.039-0.003-0.082,0.354-0.121,0.354c-0.002,0-0.017,0-0.018,0c-0.609,0-0.298-0.179-1.298,0.387v-0.014
				c0,0-0.667-0.142-0.911-0.371c-0.244-0.246-0.442-0.594-0.442-0.979c0-0.069,0.002-0.136,0.011-0.202
				c-0.172,0.068-0.358,0.102-0.549,0.102c-0.465,0-0.89-0.199-1.318-0.556c0.26,0.445,0.698,0.772,1.219,0.88
				c-0.781,0.106-1.409,0.701-1.564,1.467c-0.396-0.517-0.758-1.061-1.084-1.627c0.136-0.523,0.581-0.922,1.127-0.994
				c-0.13-0.129-0.262-0.271-0.397-0.425c-0.441,0.149-0.814,0.469-1.042,0.851c-0.36-0.69-0.668-1.412-0.918-2.159
				c0.209-0.158,0.463-0.257,0.723-0.273c-0.015-0.02-0.03-0.04-0.045-0.059c-0.225-0.054-0.494-0.121-0.787-0.195
				c-0.016,0.01-0.033,0.019-0.049,0.029c-0.004-0.015-0.008-0.03-0.013-0.045c-0.355-0.091-0.743-0.193-1.127-0.301
				C9.599,45.864,15.93,51.044,23.449,51.044z M17.676,48.89c0.173-0.087,0.367-0.136,0.575-0.14
				c-0.045-0.119-0.089-0.241-0.108-0.369c0.02,0.128,0.067,0.25,0.11,0.369c0,0,0.006,0,0.006,0.001
				c0.061,0.163,0.145,0.316,0.246,0.455C18.225,49.108,17.948,49.003,17.676,48.89z M18.652,48.105
				c0-0.011,0.123-0.029,0.123-0.029C18.79,47.43,19,46.894,20,46.78c0-0.002,0-0.003,0-0.005c0-0.106-0.149-0.215-0.149-0.327
				c0-0.019-0.048-0.041-0.047-0.06c0,0.019,0.084,0.041,0.084,0.06c0,0.111,0.112,0.221,0.112,0.327c0,0.002,0,0.003,0,0.005
				c0,0.543,0.285,1.005,0.771,1.273c0,0.005-0.04,0.015-0.024,0.021c-0.013,0.005-0.066,0.011-0.066,0.016
				c-0.487,0.279-0.832,0.767-0.915,1.338C19.141,49.31,18.652,48.764,18.652,48.105z M22.663,50.017
				c-0.828-0.042-1.64-0.153-2.428-0.324c0.001-0.385,0.172-0.731,0.416-0.977c0.162-0.176,0.429-0.3,0.691-0.348
				c0.058,0.407,0.25,0.772,0.53,1.049c0.279,0.278,0.646,0.467,1.053,0.524C22.835,49.96,22.748,49.986,22.663,50.017z
				 M23.707,50.036c0.032-0.708,0.697-1.275,1.485-1.286c0,0,0,0,0,0.001c0,0.494,0.498,0.889,0.989,1.079
				C25.402,49.96,24.521,50.031,23.707,50.036z M26.871,49.645c0.01-0.365,0.128-0.694,0.439-0.929
				c0.159-0.173,0.398-0.295,0.655-0.345c-0.001-0.001-0.001-0.002-0.001-0.002c-0.004-0.028-0.007-0.054-0.011-0.082
				c0-0.002,0.004-0.002,0.006-0.003c-0.001,0.001-0.002,0.002-0.002,0.003c0.002,0.028,0.004,0.054,0.008,0.082
				c0.001,0.001,0,0.002,0,0.002c0.046,0.319,0.174,0.612,0.361,0.857C27.852,49.39,27.366,49.53,26.871,49.645z M28.832,49.044
				c-0.237-0.242-0.383-0.573-0.383-0.939c0-0.011,0.002-0.029,0.002-0.029c0.017-0.722,0.632-1.307,1.352-1.321
				c0.244,0.582,0.785,1.015,1.427,1.118C30.471,48.331,29.669,48.724,28.832,49.044z M31,47.408v-0.015
				c0,0-1.092-0.279-1.092-1.023c0-0.66,0.738-0.999,1.364-0.999h0.007c0.117,0,0.491,1.127,1.302,1.242
				C31.979,46.744,32,46.847,31,47.408z M33.495,46.198c0.056-0.284,0.205-0.537,0.395-0.729c0.192-0.178,0.43-0.302,0.695-0.348
				C34.24,45.499,33.876,45.859,33.495,46.198z M35.202,44.404c0.019-0.559,0.376-1.031,0.885-1.216
				C35.812,43.609,35.516,44.014,35.202,44.404z M34.554,40.98c0,0-0.001,0.001-0.003,0.001c-0.026-0.004-0.052-0.01-0.078-0.015
				C34.5,40.971,34.526,40.976,34.554,40.98z M33.889,41.415c0.16-0.174,0.417-0.296,0.676-0.345
				c0.118,0.814,0.775,1.317,1.59,1.428c0.039,0.005,0.083-0.128,0.122-0.128c0.002,0,0.002,0,0.004,0
				c-0.003,1,0.003,0.218,0.004,0.262c-0.004-0.044-0.023,0.017-0.019-0.064c-0.041,0,0.018,0.035-0.019,0.029
				C35.637,42.724,35,43.192,35,43.758v-0.014c0,0-0.758-0.142-1.002-0.371c-0.244-0.246-0.477-0.594-0.477-0.979
				C33.521,42.008,33.646,41.661,33.889,41.415z M33.104,43.093c0.156,0.383,0.461,1.263,0.785,1.468
				c0.244,0.139,0.495,0.809,0.786,0.809c0.002,0,0.002,0,0.004,0c-0.008,0-0.002-0.424-0.002-0.354c0,0.05,0.007-0.183,0.011-0.134
				c0.002,0.029,0.005-0.083,0.009-0.055c-0.004-0.029-0.007-0.127-0.01-0.156c-0.288,0.02-0.555,0.356-0.798,0.494
				c-0.325,0.214-0.669,0.206-0.82,1.206c-0.002,0-0.002,0-0.004,0c-0.735,0-1.362-0.895-1.362-1.634
				c0-0.744,0.297-1.634,1.297-1.634v-0.015c0-0.051,0.027-0.103,0.013-0.157C33.028,42.986,33.084,43.042,33.104,43.093z
				 M31.496,41.45c0.221,0.589,0.733,1.037,1.36,1.167c0.043,0.009,0.091,0.016,0.135,0.022c0.013,0.095,0.032,0.188,0.056,0.277
				c-0.026-0.089-0.062-0.182-0.074-0.277c-0.045-0.006-0.081-0.013-0.124-0.022c-0.796,0.108-1.429,0.724-1.569,1.509
				c-0.632-0.113-1.114-0.664-1.114-1.327C30.166,42.061,30.761,41.461,31.496,41.45z M29.692,43.125
				c-0.019-0.106-0.029-0.214-0.029-0.326c0-0.05,0.002-0.099,0.006-0.148c-0.015-0.002-0.029-0.003-0.044-0.005
				c0.021,0.002,0.041,0.003,0.059,0.005c-0.004,0.049-0.014,0.097-0.014,0.148c0,0.111,0.006,0.22,0.025,0.326
				c0.1,0.558,0.448,1.031,0.928,1.296c0.001,0.001,0.002,0.002,0.003,0.002c-0.496,0.276-0.865,0.772-0.949,1.356
				c0.019,0.003,0.039,0.007,0.058,0.01c-0.02-0.002-0.041-0.006-0.062-0.01c-0.629-0.115-1.099-0.665-1.099-1.326
				C28.575,43.789,29.058,43.236,29.692,43.125z M27.311,45.47c0.24-0.222,0.534-0.36,0.878-0.369
				c0.22,0.589,0.732,1.036,1.359,1.166c-0.795,0.108-1.431,0.724-1.572,1.509c-0.261-0.049-0.505-0.174-0.664-0.349
				c-0.325-0.246-0.423-0.593-0.423-0.979C26.887,46.064,26.986,45.717,27.311,45.47z M25,44.567c0,0.006-0.177,0.036-0.176,0.042
				c0.002,0.028-0.083,0.069-0.079,0.096c0.117,0.815,0.722,1.464,1.539,1.575c0.028,0.004,0.036,0.011,0.066,0.014
				c0.012,0.001,0.013,0.004,0.025,0.004c-0.004,0.05-0.007,0.099-0.007,0.149c0,0.111,0.013,0.221,0.032,0.327
				c0.097,0.546,0.423,1.156,0.911,1.425c0,0.006-0.01,0.171,0.002,0.171h0.005c0,0,0.001-0.147,0.002-0.147
				c-0.006,0.005-0.01-0.065-0.01-0.061c-0.487,0.279-0.858,0.731-0.941,1.302c0.045,0.008,0.081-0.004,0.119,0
				c-0.044-0.003-0.086-0.019-0.133-0.028c-0.629-0.115-1.097-0.667-1.097-1.328c0-0.011,0.011-0.032,0.011-0.032
				c0.015-0.65,0.492-1.191,1.115-1.3c-0.019-0.106-0.029-0.217-0.029-0.328c0-0.05,0.002-0.1,0.007-0.149
				c-0.011-0.001-0.021-0.002-0.032-0.003c-0.034-0.002-0.008-0.007-0.039-0.01C25.68,46.415,25,46.842,25,47.408v-0.015
				c-1,0-1.4-0.605-1.4-1.349c0-0.661,0.453-0.843,1.081-0.958c-0.003-0.028-0.036,0.285-0.038,0.285c0.001,0,0.357,0,0.357,0
				S25,44.573,25,44.567z M23.096,43.229c0.016,0.069,0.037,0.136,0.06,0.201c0.154,0.424,0.459,0.776,0.849,0.992
				c0.001,0.001,0.002,0.001,0.002,0.002c-0.496,0.275-0.846,0.772-0.931,1.356c-0.628-0.115-1.112-0.665-1.112-1.326
				c0-0.663,0.478-1.213,1.109-1.327C23.081,43.161,23.088,43.195,23.096,43.229z M21.339,41.039
				c-0.001-0.012-0.002-0.023-0.003-0.035C21.349,41.015,21.345,41.027,21.339,41.039z M20.651,41.415
				c0.16-0.174,0.421-0.296,0.68-0.345c0.118,0.813,0.776,1.458,1.592,1.568c0.004,0.001,0.199,0.001,0.204,0.002
				C22.519,42.768,22,43.194,22,43.758v-0.014c-1,0-0.918-0.142-1.162-0.371c-0.244-0.246-0.517-0.594-0.517-0.979
				C20.321,42.008,20.407,41.661,20.651,41.415z M16.935,42.799c0-0.738,0.595-1.339,1.33-1.349c0.221,0.59,0.732,1.037,1.359,1.167
				c0.044,0.009,0.088,0.016,0.132,0.022c0.013,0.098,0.031,0.194,0.057,0.287c0.015,0.055,0.033,0.11,0.055,0.163
				c0.156,0.383,0.458,1.267,0.783,1.472c0.244,0.139,0.536,0.809,0.827,0.809c0.002,0,0.005,0,0.007,0
				c-0.007,0-0.02-0.424-0.02-0.354c0,0.05-0.002-0.183,0.002-0.134c0.002,0.022,0.004-0.097,0.007-0.076
				c0.016,0.151,0.05,0.226,0.102,0.364c0.22,0.589,0.731,1.002,1.358,1.132c0.044,0.009,0.097-0.001,0.141,0.004
				c0.021,0.157,0.056,0.299,0.114,0.441c0.262,0.642,0.856,1.101,1.578,1.149c0.041,0.002,0.108,0.002,0.108,0.002
				s0.048,0,0.007-0.003C24.874,47.955,25,47.995,25,48.076c0,0,0,0.019,0,0.029c0,0.05-0.116,0.097-0.112,0.147
				c0.011,0.132-0.023,0.259,0.014,0.383c-0.038-0.123-0.095-0.251-0.106-0.384c-0.738,0.051-1.376,0.536-1.625,1.201
				c-0.735-0.011-1.334-0.608-1.334-1.347c0-0.011,0.417-0.029,0.417-0.029C22.271,47.345,23,46.753,24,46.753v-0.014
				c0-0.142-0.507-0.242-0.528-0.399c-0.042-0.006-0.386,0.03-0.428,0.03c-0.002,0-0.058,0-0.06,0c-0.797,0-1.459,0.674-1.6,1.46
				c-0.015,0.084-0.037,0.161-0.04,0.239c0.002-0.078-0.001-0.193,0.013-0.278c-0.266-0.046-0.461-0.179-0.704-0.358
				c-0.244-0.246-0.425-0.596-0.425-0.982c0-0.385,0.179-0.733,0.422-0.98c0.244-0.225,0.559-0.365,0.911-0.37
				c-0.052-0.138-0.084-0.284-0.1-0.435c-0.002-0.021-0.005-0.043-0.007-0.065c-0.289,0.02-0.561,0.106-0.805,0.244
				c-0.325,0.214-0.668,0.551-0.82,0.956c-0.732-0.015-1.251-0.612-1.251-1.348c0-0.744,1.421-1.349,1.421-1.349v-0.015
				c0-0.054-0.092-0.108-0.107-0.163c-0.025-0.093-0.102-0.188-0.115-0.287c-0.045-0.006-0.1-0.013-0.143-0.022
				c-0.796,0.108-1.438,0.724-1.578,1.508C17.426,44.014,16.935,43.462,16.935,42.799z M18.041,44.719c0,0,0.002,0.043,0.005,0.044
				c0.116,0.806,0.75,1.609,1.554,1.609c-0.002,0-0.003,0-0.005,0c0,0-0.136-0.04-0.134-0.039C18.862,46.465,19,46.849,18,47.408
				v-0.015c0,0-1.207-0.605-1.207-1.349C16.793,45.384,17.414,44.835,18.041,44.719z M16.568,46.755
				c0.265,0.634,0.878,1.09,1.595,1.138c0.041,0.002,0.05,0.004,0.132,0.004c-0.081,0-0.089,0.001-0.129-0.002
				c-0.006,0.058-0.016,0.1-0.017,0.181c0,0-0.011,0.019-0.011,0.029c0,0.05-0.005,0.097-0.005,0.145
				c-0.379,0.027-0.727,0.171-1.01,0.396c-0.632-0.292-1.239-0.628-1.82-1.001C15.496,47.133,15.997,46.764,16.568,46.755z
				 M16.272,46.275c0.007,0.002,0.012,0.004,0.018,0.006c-0.007-0.002-0.014-0.003-0.02-0.006c-0.627,0.102-1.149,0.518-1.398,1.082
				c-0.427-0.296-0.838-0.613-1.232-0.951c0.012-0.368,0.197-0.699,0.432-0.936c0.241-0.223,0.569-0.361,0.893-0.369
				c0,0.002-0.004,0.011-0.004,0.011C15.176,45.686,15.666,46.105,16.272,46.275z M11.78,44.453c0-0.744,0.22-1.349,1.22-1.349
				v-0.015c0-0.142,0.031-0.292,0.01-0.45c-0.024-0.003,0.017-0.008-0.007-0.012c0.032,0.005,0.097,0.009,0.123,0.012
				c0.021,0.158,0.08,0.308,0.137,0.45c0.156,0.383,0.395,0.703,0.801,0.908c0.244,0.139,0.5,0.226,0.79,0.245
				c0.008,0.001,0.018,0.001,0.027,0.002c-0.013,0-0.024-0.001-0.035-0.002c-0.008,0.069-0.009,0.139-0.009,0.21
				c0,0.05,0.004,0.099,0.008,0.148c0,0.001,0.004,0.001,0.004,0.002c-0.282,0.023-0.539,0.392-0.778,0.527
				c-0.406,0.214-0.669,0.241-0.82,1.241c0.006,0,0.008,0,0.008,0s-0.013,0-0.019,0c-0.106,0-0.208-0.299-0.306-0.324
				c-0.352-0.341-0.751-0.842-1.068-1.217C11.852,44.754,11.78,44.533,11.78,44.453z"/>
			<path style="fill:#F1F9FC;" d="M23.168,39.439c-0.207-0.142-0.091-0.293-0.112-0.45c-0.044-0.006-0.084-0.013-0.127-0.022
				c-0.215,0.029-0.422,0.096-0.61,0.193l0.434-0.052l0.176,0.368c0.078-0.014,0.032-0.022,0.239-0.022V39.439z"/>
			<path style="fill:#F1F9FC;" d="M28.575,37.153c0-0.664,0.483-1.217,1.117-1.328c-0.019-0.106-0.029-0.214-0.029-0.326
				c0-0.05,0.002-0.099,0.006-0.148c-0.041-0.003-0.185-0.007-0.225-0.013C28.835,35.465,28,35.892,28,36.458v-0.014
				c0,0-0.548-0.142-0.791-0.371c-0.325-0.246-0.387-0.377-0.387-0.763c0-0.052,0.04,0.061,0.045,0.061H26.58h-1.132
				c0.226,0,0.496,0.101,0.792,0.162c0.043,0.009,0.279-0.092,0.323-0.086C26.643,35.458,27,35.351,27,35.351v0.003
				c0,0-0.344-0.003-0.414-0.012c0-0.001-0.105-0.002-0.106-0.003c-0.044-0.006-0.142-0.013-0.186-0.022
				c-0.796,0.108-1.46,0.724-1.6,1.51c-0.019,0.106-0.043,0.215-0.043,0.326c0,0.062-0.003,0.122,0.002,0.181
				c0.002,0.028,0.003,0.056,0.007,0.084c0.108,0.752,0.668,1.359,1.397,1.535l-0.109-0.204l1.034-0.136
				c0.063-0.168,0.158-0.318,0.328-0.442c0.24-0.223,0.534-0.361,0.878-0.37c0.077,0.207,0.191,0.396,0.333,0.56
				c0.22-0.045,0.415-0.091,0.584-0.138C28.784,37.977,28.575,37.589,28.575,37.153z M28.082,36.942
				c-0.008,0.069-0.05,0.14-0.05,0.21c0,0.05-0.032,0.099-0.032,0.148c0,0.001,0,0.002,0,0.002c0,0.023-0.491,0.543-0.728,0.677
				c-0.406,0.214-0.63,0.391-0.781,1.391c0.006,0,0.008,0,0.008,0s-0.017,0-0.023,0c-0.736-1-1.078-1.045-1.078-1.784
				c0-0.744,0.602-1.784,1.602-1.784v-0.009c0,0.381,0.157,0.698,0.561,0.903c0.244,0.138,0.37,0.225,0.661,0.244
				c0.026,0.002-0.002,0.002,0.022,0.003C28.217,36.946,28.109,36.944,28.082,36.942z"/>
			<path style="fill:#F1F9FC;" d="M25,40.108v-0.014c-1,0-1.4-0.606-1.4-1.35c0-0.661,0.453-1.193,1.081-1.308
				c-0.003-0.028-0.036-0.065-0.038-0.065c0.001,0,0.002,0,0.002,0c-0.006,0-0.009-0.138-0.009-0.2c0-0.111,0.011-0.229,0.03-0.335
				c-0.634-0.111-1.117-0.453-1.117-1.117c0-0.2,0.045-0.349,0.123-0.349h-0.505h-1.155c0.258,0,0.573,0.137,0.919,0.184
				c0.01,0.001,0.206-0.11,0.215-0.108C22.54,35.575,22,35.894,22,36.458v-0.014c-1,0-0.918-0.142-1.162-0.371
				c-0.244-0.246-0.51-0.377-0.51-0.763c0-0.052-0.082,0.061-0.077,0.061h-0.251h-1.169c0.226,0,0.496,0.101,0.792,0.162
				c0.043,0.009,0.086-0.092,0.131-0.086C19.836,35.458,20,35.351,20,35.351v0.003c0,0-0.164-0.005-0.245-0.016
				c0.013,0.098,0.031,0.195,0.057,0.287c0.015,0.055,0.033,0.112,0.055,0.165c0.156,0.383,0.458,0.915,0.783,1.122
				c0.244,0.138,0.536,0.459,0.827,0.459c0.002,0,0.005,0,0.007,0c-0.007,0-0.02-0.075-0.02-0.004c0,0.05-0.002-0.008,0.002,0.041
				c0.012,0.152,0.041,0.245,0.086,0.384c0.007,0.02,0.015,0.015,0.022,0.035c0.221,0.59,0.732,1.024,1.359,1.154
				c0.043,0.009,0.097,0.01,0.141,0.015c0.021,0.157,0.056,0.304,0.114,0.447c0.191,0.469,0.566,0.841,1.038,1.027
				c0.002-0.009,0.008-0.016,0.008-0.016l0.009,0.001l0.027,0.032l0.01,0.013l0.026,0.032l0.153-0.144l0.495,0.621
				c0.576,0.726,1.155,1.257,1.55,1.421c0.074,0.031,0.209,0.047,0.268,0.047c0.062,0,0.229-0.021,0.229-0.055
				c0-0.01,0-0.019,0-0.029c0-0.318,0.014-0.61,0.224-0.841c-0.021-0.16-0.102-0.353-0.176-0.572
				c-0.343,0.286-0.612,0.69-0.677,1.149c-0.629-0.115-1.105-0.668-1.105-1.33c0-0.011,0.007-0.034,0.007-0.034
				c0.015-0.636,0.461-1.16,1.064-1.285l-0.181-0.459C25.608,39.18,25,39.585,25,40.108z M23.087,35.349
				c0.039,0.003,0.081,0.007,0.081,0.007v0c0,0-0.081-0.002-0.081-0.004V35.349z M23.076,38.479
				c-0.628-0.115-1.111-0.665-1.111-1.326c0-0.663,0.478-1.214,1.11-1.327c0.1,0.558,0.45,1.03,0.929,1.295
				C23.506,37.397,23.16,37.894,23.076,38.479z"/>
			<path style="fill:#F1F9FC;" d="M26.439,39.678l-0.023-0.044c0.064,0.238,0.174,0.457,0.32,0.646
				C26.648,40.088,26.549,39.887,26.439,39.678z"/>
			<path style="fill:#F1F9FC;" d="M11.426,37.416c-0.004-0.028-0.019-0.085-0.022-0.085h-0.035v0.014
				c-0.207-0.032-0.422-0.11-0.617-0.218c-0.333,0.185-0.593,0.469-0.759,0.812c0.136,0.033,0.272,0.066,0.403,0.097l0.111,0.02
				C10.703,37.728,11.037,37.487,11.426,37.416z"/>
			<path style="fill:#F1F9FC;" d="M20.651,38.171c0.244-0.226,0.564-0.365,0.915-0.37c-0.007-0.019-0.015-0.04-0.021-0.059
				c-0.047-0.141-0.08-0.288-0.093-0.44c-0.289,0.02-0.557,0.106-0.801,0.244c-0.325,0.214-0.669,0.551-0.82,0.956
				c-0.732-0.014-1.251-0.612-1.251-1.348c0-0.744,1.421-1.349,1.421-1.349v-0.015c0-0.054-0.092-0.108-0.107-0.163
				c-0.025-0.093-0.102-0.188-0.115-0.287c-0.045-0.006-0.099-0.013-0.143-0.022c-0.795,0.108-1.438,0.724-1.578,1.508
				c-0.631-0.112-1.117-0.448-1.117-1.111c0-0.2,0.04-0.344,0.118-0.344H16.59h-1.191c0.258,0,0.573,0.137,0.919,0.184
				c0.04,0.005-0.203-0.098-0.163-0.096C16.197,35.462,16,35.351,16,35.351v0.003c0,0,0.197-0.001,0.154-0.003
				c-0.004,0.049,0.135,0.098,0.135,0.149c0,0.111,0.081,0.22,0.1,0.326c0.099,0.559,0.485,1.031,0.965,1.296
				c0.048,0.027,0.117,0.051,0.167,0.075c-0.051-0.023-0.092-0.048-0.141-0.075c-0.498,0.275-0.863,0.773-0.946,1.359
				c-0.629-0.115-1.098-0.666-1.098-1.327c0-0.664,0.487-1.217,1.12-1.328c-0.019-0.106-0.028-0.214-0.028-0.326
				c0-0.05,0.004-0.099,0.008-0.148c-0.041-0.003-0.069-0.007-0.108-0.013C15.718,35.465,16,35.892,15,36.458v-0.014
				c0,0-0.667-0.142-0.911-0.371c-0.244-0.246-0.442-0.377-0.442-0.763c0-0.052-0.016,0.061-0.01,0.061h-0.214h-1.205
				c0.226,0,0.496,0.101,0.792,0.162c0.043,0.009-0.106-0.092-0.062-0.086C13.028,35.458,13,35.351,13,35.351v0.003
				c0,0,0.027-0.005-0.053-0.016c0.021,0.158,0.169,0.309,0.227,0.451c0.156,0.383,0.439,0.704,0.845,0.909
				c0.244,0.138,0.522,0.225,0.813,0.245c0.008,0.001,0.029,0.001,0.038,0.002c-0.013,0-0.019-0.001-0.029-0.002
				c-0.008,0.069,0.071,0.14,0.071,0.21c0,0.05,0.089,0.099,0.089,0.148c0,0.001,0,0.002,0,0.002c0,0.022-0.612,0.542-0.851,0.677
				c-0.406,0.214-0.723,0.391-0.874,1.391c0.006,0-0.004,0-0.004,0s-0.019,0-0.025,0c-0.735-1-1.463-1.045-1.463-1.784
				c0-0.744,0.217-1.784,1.217-1.784v-0.015c0-0.142,0.031-0.292,0.01-0.45c-0.044-0.006-0.023-0.013-0.066-0.022
				c-0.796,0.108-1.408,0.723-1.548,1.509c-0.631-0.113-1.095-0.449-1.095-1.111c0-0.2,0.062-0.344,0.14-0.344H9.929H8.783
				c0.258,0,0.668,0.113,1.013,0.16C9.836,35.536,10,35.286,10,35.286v0.006c0,0-0.005,0.003-0.005,0.003
				c0.011,0,0.005,0.032,0.005,0.035c0,0.006,0,0.013,0,0.017c0-0.002-0.129-0.005-0.15-0.008c-0.582,0.121-1.132,0.741-1.39,1.267
				c-0.047-0.482-0.109-0.235-0.109-1.235H7.344c0,1,0.059,1.362,0.171,2.125c0.393,0.12,0.843,0.133,1.308,0.257
				c-0.059-0.152-0.092-0.373-0.092-0.547c0-0.662,0.465-1.114,1.113-1.228c0.1,0.557,0.45,1.392,0.93,1.392h-0.012
				c0.195,0,0.684,0.056,0.927,0.088c0-0.008,0.309-0.172,0.309-0.18v0.015c0-0.033-0.302-0.059-0.301-0.092
				c0.003,0.033-0.144,0.07-0.141,0.103c0.001,0.008-0.071,0.019-0.07,0.027c0.002,0.028-0.03,0.057-0.026,0.085
				c0.117,0.815,0.749,1.461,1.566,1.571c-0.457,0.095-0.862,0.359-1.128,0.723c0.111,0.137,0.22,0.274,0.333,0.403
				c0.197-0.331,0.529-0.57,0.923-0.639c0.036,0.205,0.105,0.398,0.203,0.573c0.001-0.13-0.007-0.273-0.023-0.424l-0.102-0.96
				l0.467,0.079c0.066-0.221,0.183-0.418,0.371-0.574c0.24-0.223,0.56-0.361,0.906-0.37c0,0.001,0.022,0.002,0.022,0.002v0.003
				c1,0.577,0.691,0.993,1.301,1.162c-0.133,0.021-0.27,0.056-0.392,0.104c0.37,0.044,0.734,0.084,1.1,0.115
				c-0.046-0.138-0.073-0.286-0.073-0.437c0-0.661,0.479-1.215,1.107-1.33c-0.004-0.028-0.008-0.057-0.01-0.085
				c-0.006-0.059-0.009-0.12-0.009-0.182c0-0.091,0.004-0.181,0.016-0.268c-0.009,0.088-0.007,0.176-0.007,0.267
				c0,0.062,0.019,0.122,0.019,0.181c0,0.019-0.002,0.037-0.002,0.056c0,0.009,0,0.019,0.002,0.028
				c0.117,0.815,0.756,1.46,1.573,1.571c-0.256,0.053-0.492,0.16-0.698,0.307c0.246,0.006,0.49,0.01,0.733,0.01
				c0.206,0,0.401-0.002,0.587-0.007c-0.007-0.049-0.012-0.099-0.012-0.15C20.235,38.763,20.407,38.417,20.651,38.171z
				 M9.929,35.356c0,0-0.008-0.003-0.019-0.008C9.921,35.353,9.929,35.356,9.929,35.356L9.929,35.356z"/>
			<path style="fill:#F1F9FC;" d="M5.513,29.345c2.125-8.192,9.467-14.25,18.173-14.25c9.049,0,16.623,6.544,18.399,15.226
				c1.092-0.052,1.593-0.178,1.708-0.234c0.065-0.041,0.158-0.105,0.263-0.179c-1.631-7.955-7.674-14.285-15.401-16.216
				l-2.356-2.585c0.545-0.599,0.878-1.395,0.878-2.268c0-0.702-0.193-1.345-0.559-1.86c-0.443-0.624-1.303-1.387-1.339-1.419
				l0.144-0.031C25.295,5.436,25,5.014,25,4.632V3.024c1-0.213,1.612-0.653,1.612-2.653h-4.867c0,2,1.255,2.382,2.255,2.632v1.629
				c0,0.897,0.637,1.563,0.814,1.696c0.115,0.103,0.73,0.746,1.076,1.234c0.244,0.344,0.327,0.785,0.327,1.277
				c0,0.578-0.232,1.108-0.577,1.519l-0.76-0.821c-0.317-0.348-0.745-0.541-1.191-0.532c-0.447,0.005-0.867,0.203-1.177,0.557
				l-0.603,0.69c-0.295-0.395-0.47-0.884-0.47-1.413c0-0.278-0.226-0.503-0.504-0.503c-0.278,0-0.504,0.225-0.504,0.503
				c0,0.832,0.303,1.594,0.804,2.183l-2.28,2.612c-7.883,1.87-14.056,8.305-15.665,16.402c0.582-0.227,1.188-0.43,1.792-0.582
				C5.232,29.416,5.375,29.38,5.513,29.345z"/>
			<path style="fill:#F1F9FC;" d="M44.317,31.45c-0.477,0.187-1.232,0.196-1.989,0.239c0.073,0.582,0.122,1.681,0.142,1.681h-2.169
				c-0.03,0-0.148-1.854-0.344-2.823c-0.27,0.017-0.777,0.141-1.14,0.234C39.036,31.823,39,32.954,39,34.058v0.313h3.477
				c-0.008,1-0.026,0.842-0.053,1.2c0.635,0.026,1.282,0.235,1.987,0.465c0.055-0.622,0.084-1.213,0.084-1.876
				C44.495,33.272,44.433,32.358,44.317,31.45z"/>
			<path style="fill:#F1F9FC;" d="M23.63,17.38c-7.333,0-13.575,4.758-15.803,11.349c0.422-0.116,0.791-0.216,1.184-0.313
				c0.167-0.432,0.352-0.854,0.556-1.267l1.297,0.802l0.265-0.428L9.798,26.7c0.582-1.089,1.288-2.101,2.1-3.018l3.123,2.663
				l0.327-0.383l-3.11-2.651c0.888-0.941,1.892-1.773,2.987-2.472l0.955,1.366l0.412-0.288l-0.938-1.341
				c1.052-0.624,2.182-1.129,3.372-1.496l0.389,1.528l0.488-0.124l-0.082-1.544C21.057,18.6,22,18.411,24,18.39V22l0,0v-3.61
				c1,0.022,2.665,0.224,3.94,0.584l-0.403,1.381l0.471,0.132l0.363-1.369c1.262,0.401,2.451,0.957,3.553,1.647l-0.888,1.231
				l0.408,0.294l0.9-1.252c1.033,0.693,1.978,1.507,2.818,2.419l-2.969,2.56l0.329,0.381l2.974-2.565
				c0.743,0.862,1.395,1.805,1.938,2.814l-1.275,0.641l0.226,0.45l1.28-0.644c0.369,0.741,0.681,1.516,0.931,2.318
				c0.342-0.087,0.67-0.167,0.989-0.212C37.5,22.367,31.138,17.38,23.63,17.38z"/>
		</g>
		<path style="fill:#F1F9FC;" d="M42.239,35.678c1.179,0,2.386,0.464,3.915,1.051l0.07,0.027c0.352,0.135,0.715,0.062,1.093,0.2
			c1.488,0.545,3.078,0.415,3.893,0.415c0.018,0,0.035,0,0.051,0c-0.264,0-0.473-1.351-0.519-1.579l-0.105-0.406l-0.028,0.016
			c-0.112-0.156-0.449-0.688-0.512-1.819c-0.061-1.088,0.456-1.508,0.705-1.652c0.01-0.205,0.041-0.621,0.138-1.25
			c0.104-0.674-0.084-1.532-0.167-1.863c-0.194-0.026-0.391-0.038-0.59-0.038c-2.052,0-3.997,1.398-5.042,2.149l-0.014,0.01
			c-0.227,0.163-0.423,0.304-0.574,0.396c-0.602,0.37-2.103,0.459-3.257,0.469l-0.927,0.008l0.208-0.903
			c0.001-0.003,0.001-0.006,0.001-0.01c0-0.023-0.049-0.1-0.197-0.199c-0.027-0.018-0.11-0.073-0.328-0.073
			c-0.306,0-0.728,0.108-1.174,0.222c-0.631,0.161-1.347,0.34-2.025,0.31c-0.938-0.047-4.492-0.65-7.308-1.147l-2.051-0.362
			l1.796-0.982c-0.26-0.213-0.572-0.524-0.95-0.907c-0.257-0.26-0.495-0.501-0.672-0.653c-0.436-0.374-0.955-1.135-1.116-1.377
			l-0.102-0.028l-0.498-0.664c-0.151-0.201-0.459-0.562-0.609-0.734c-0.366,0.069-1.572,0.392-2.751,1.796
			c-1.206,1.436-2.41,2.271-2.872,2.564l-0.172,0.109l-0.204,0.004c-1.799,0.036-8.552,0.719-9.634,0.974
			c-0.565,0.133-1.044,0.264-1.65,0.431l-0.044,0.012c-0.638,0.174-1.431,0.391-2.58,0.679c-1.991,0.498-4.068,1.653-5.067,2.209
			c-0.074,0.041-0.142,0.079-0.202,0.112L0.083,33.24l-0.039,0.015C0.033,33.275,0,33.35,0,33.526c0,0.017,0.017,0.064,0.083,0.138
			l0.371,0.419L0.146,34.55c-0.008,0.013-0.017,0.029-0.025,0.047c-0.088,0.205-0.088,0.205,0.172,0.394l0.007,0.005
			c0.089,0.065,0.199,0.145,0.322,0.25c1.092,0.936,2.919,1.256,4.01,1.448c0.35,0.061,0.573,0.102,0.706,0.142l0.1,0.03
			l0.087,0.057c0.07,0.045,0.246,0.034,0.443-0.033l0.269-0.092l0.26,0.114c0.704,0.309,2.477,0.782,3.901,1.122l0.24,0.057
			l0.156,0.191c0.113,0.138,0.27,0.349,0.422,0.552c0.446,0.597,1.491,1.996,1.89,1.996c0.013,0,0.016-0.002,0.018-0.003
			c0.195-0.108,0.278-0.581,0.211-1.205l-0.102-0.96l0.951,0.162c1.871,0.318,3.713,0.479,5.475,0.479
			c1.254,0,2.151-0.085,2.574-0.135l0.519-0.062l0.226,0.471c0.139,0.29,0.38,0.727,0.737,1.164
			c0.096,0.118,0.154,0.157,0.182,0.171l0.56-0.526l0.495,0.621c0.576,0.726,1.155,1.257,1.55,1.421
			c0.074,0.031,0.109,0.047,0.168,0.047c0.353,0,0.43-0.649,0.43-0.701v-0.001c0-0.396-0.211-1.18-0.697-2.098l-0.474-0.929
			l1.051-0.137c1.042-0.137,1.887-0.301,2.372-0.463c0.257-0.086,0.619-0.127,1.102-0.127c1.136,0,2.614,0.238,3.039,0.31
			l0.156,0.027l0.131,0.088c2.115,1.428,4.784,2.425,5.454,2.664l0.532-0.691c-0.041-0.171-0.095-0.493-0.004-0.758l0.054-0.155
			l0.098-0.1c0.044-0.094,0.237-0.623,0.353-2.866l0.025-0.478l0.448-0.169c0.3-0.113,0.737-0.184,1.298-0.211
			C42.106,35.679,42.173,35.678,42.239,35.678z"/>
	</g>
</g>
<g id="Layer_1">
</g>
</svg>
