<?xml version="1.0" encoding="iso-8859-1"?>
<!-- Generator: Adobe Illustrator 17.0.2, SVG Export Plug-In . SVG Version: 6.00 Build 0)  -->
<!DOCTYPE svg PUBLIC "-//W3C//DTD SVG 1.1//EN" "http://www.w3.org/Graphics/SVG/1.1/DTD/svg11.dtd">
<svg version="1.1" xmlns="http://www.w3.org/2000/svg" xmlns:xlink="http://www.w3.org/1999/xlink" x="0px" y="0px" width="14px"
	 height="17.192px" viewBox="0 0 14 17.192" style="enable-background:new 0 0 14 17.192;" xml:space="preserve">
<g id="apple">
	<path id="apple-os-icon" style="fill:#257BD2;" d="M14,12.613c-0.563,1.633-2.085,4.525-3.822,4.556
		c-1.152,0.022-1.522-0.682-2.839-0.682c-1.316,0-1.727,0.661-2.817,0.704C2.681,17.261,0,13.016,0,9.315
		c0-3.401,2.206-5.086,4.277-5.117c1.11-0.02,2.159,0.749,2.837,0.749c0.679,0,1.953-0.924,3.292-0.788
		c0.56,0.023,2.134,0.226,3.144,1.703C10.869,7.61,11.123,11.268,14,12.613z M10.423,0C8.398,0.082,6.746,2.205,6.977,3.962
		C8.848,4.107,10.643,2.01,10.423,0z"/>
</g>
<g id="Layer_1">
</g>
</svg>
