<?xml version="1.0" encoding="iso-8859-1"?>
<!-- Generator: Adobe Illustrator 17.0.2, SVG Export Plug-In . SVG Version: 6.00 Build 0)  -->
<!DOCTYPE svg PUBLIC "-//W3C//DTD SVG 1.1//EN" "http://www.w3.org/Graphics/SVG/1.1/DTD/svg11.dtd">
<svg version="1.1" xmlns="http://www.w3.org/2000/svg" xmlns:xlink="http://www.w3.org/1999/xlink" x="0px" y="0px"
	 width="112.676px" height="55.211px" viewBox="0 0 112.676 55.211" style="enable-background:new 0 0 112.676 55.211;"
	 xml:space="preserve">
<g id="catch-fish">
	<g>
		<g id="XMLID_2_">
			<path style="fill:#AFC4E2;" d="M67.23,14.971c25.79,1.4,42.77,20.08,42.77,20.08s-8.27,9.1-22.04,15.07l-0.61-2.51l1.3-1.3
				c-0.12-0.12-0.23-0.24-0.34-0.38c7.66-3.61,13.35-8.13,16.41-10.88c-3.08-2.74-8.79-7.27-16.48-10.9
				c0.11-0.11,0.23-0.22,0.35-0.32l-1.18-1.4c-0.34,0.28-0.66,0.59-0.94,0.93c-6.31-2.75-13.82-4.8-22.21-4.81l0.02-1.19l3.44-1.29
				C67.58,15.691,67.42,15.331,67.23,14.971z"/>
			<path style="fill:#AFC4E2;" d="M95.33,31.381c1.02,0,1.84,0.82,1.84,1.83c0,1.02-0.82,1.84-1.84,1.84
				c-1.01,0-1.83-0.82-1.83-1.84C93.5,32.201,94.32,31.381,95.33,31.381z"/>
			<path style="fill:#F1F9FC;" d="M104.72,35.051c-3.06,2.75-8.75,7.27-16.41,10.88c-2.1-2.47-3.39-7.58-3.16-12.7
				c0.19-4.06,1.3-7.32,3.09-9.08C95.93,27.781,101.64,32.311,104.72,35.051z M97.17,33.211c0-1.01-0.82-1.83-1.84-1.83
				c-1.01,0-1.83,0.82-1.83,1.83c0,1.02,0.82,1.84,1.83,1.84C96.35,35.051,97.17,34.231,97.17,33.211z"/>
			<path style="fill:#AFC4E2;" d="M88.31,45.931c0.11,0.14,0.22,0.26,0.34,0.38l-1.3,1.3c-0.27-0.27-0.52-0.56-0.77-0.89
				C87.17,46.461,87.74,46.201,88.31,45.931z"/>
			<path style="fill:#AFC4E2;" d="M87.41,22.431l1.18,1.4c-0.12,0.1-0.24,0.21-0.35,0.32c-0.58-0.26-1.17-0.53-1.77-0.79
				C86.75,23.021,87.07,22.711,87.41,22.431z"/>
			<path style="fill:#AFC4E2;" d="M87.35,47.611l0.61,2.51c-6.73,2.92-14.77,5.09-23.79,5.09c-27.5,0-45.84-13.75-45.84-13.75
				L0,48.801c4.58-11.92,4.58-15.59,0-26.59c9.17,0,18.33,5.5,18.33,5.5s8.03-5.61,21.42-9.41l3.08,2.57l0.1,0.39
				c-13.86,3.56-22.38,9.38-22.5,9.46l-1.95,1.35l-2.03-1.21c-0.06-0.04-4.99-2.94-10.89-4.3c1.89,5.8,2.04,10.03,0.46,15.88
				l10.95-4.38l1.91-0.77l1.65,1.24c0.17,0.13,17.79,13.02,43.64,13.02c8.49,0,16.06-2.07,22.41-4.83
				C86.83,47.051,87.08,47.341,87.35,47.611z"/>
			<path style="fill:#AFC4E2;" d="M88.31,45.931c-0.57,0.27-1.14,0.53-1.73,0.79c-2.21-2.94-3.5-8.19-3.26-13.57
				c0.12-2.54,0.69-6.95,3.15-9.79c0.6,0.26,1.19,0.53,1.77,0.79c-1.79,1.76-2.9,5.02-3.09,9.08
				C84.92,38.351,86.21,43.461,88.31,45.931z"/>
			<path style="fill:#F1F9FC;" d="M86.47,23.361c-2.46,2.84-3.03,7.25-3.15,9.79c-0.24,5.38,1.05,10.63,3.26,13.57
				c-6.35,2.76-13.92,4.83-22.41,4.83c-25.85,0-43.47-12.89-43.64-13.02l-1.65-1.24l-1.91,0.77l-10.95,4.38
				c1.58-5.85,1.43-10.08-0.46-15.88c5.9,1.36,10.83,4.26,10.89,4.3l2.03,1.21l1.95-1.35c0.12-0.08,8.64-5.9,22.5-9.46
				c6.12-1.58,13.29-2.71,21.24-2.71c0.03,0,0.06,0,0.09,0C72.65,18.561,80.16,20.611,86.47,23.361z M75.17,42.381v-1.83
				c-1.58,0-3.34,1.35-5.37,2.91c-0.81,0.63-1.65,1.27-2.48,1.82c-1.55,1.04-7.9-0.95-10.12-3.17c-0.22-0.22-0.71-0.77-0.52-1.06
				c0.83-1.24,5.12-1.95,8.26-2.47c3.07-0.52,5.73-0.96,7.07-1.85l-1.02-1.53c-1.01,0.68-3.73,1.13-6.35,1.57
				c-4.23,0.7-8.22,1.37-9.49,3.27c-0.31,0.47-0.87,1.74,0.75,3.36c1.91,1.91,6.77,3.97,10.08,3.97c0.95,0,1.77-0.17,2.36-0.56
				c0.88-0.59,1.74-1.25,2.58-1.89C72.54,43.671,74.21,42.381,75.17,42.381z"/>
			<path style="fill:#AFC4E2;" d="M75.17,40.551v1.83c-0.96,0-2.63,1.29-4.25,2.54c-0.84,0.64-1.7,1.3-2.58,1.89
				c-0.59,0.39-1.41,0.56-2.36,0.56c-3.31,0-8.17-2.06-10.08-3.97c-1.62-1.62-1.06-2.89-0.75-3.36c1.27-1.9,5.26-2.57,9.49-3.27
				c2.62-0.44,5.34-0.89,6.35-1.57l1.02,1.53c-1.34,0.89-4,1.33-7.07,1.85c-3.14,0.52-7.43,1.23-8.26,2.47
				c-0.19,0.29,0.3,0.84,0.52,1.06c2.22,2.22,8.57,4.21,10.12,3.17c0.83-0.55,1.67-1.19,2.48-1.82
				C71.83,41.901,73.59,40.551,75.17,40.551z"/>
			<path style="fill:#AFC4E2;" d="M67.72,16.071l-3.44,1.29c-0.33-0.88-0.8-1.7-1.37-2.47c0.42-0.01,0.84-0.01,1.26-0.01
				c1.03,0,2.05,0.03,3.06,0.09C67.42,15.331,67.58,15.691,67.72,16.071z"/>
			<path style="fill:#AFC4E2;" d="M67.23,14.971c-1.01-0.06-2.03-0.09-3.06-0.09c-0.42,0-0.84,0-1.26,0.01
				c-2.78-3.73-7.89-6.11-10.13-7.02c-3.27,3.42-7.93,6.04-10.86,7.47l2.2,1.84c-1.52,0.34-2.97,0.72-4.37,1.12l-4.78-3.98
				l2.85-1.14c0.09-0.04,8.8-3.57,13.02-8.64l0.8-0.96l1.19,0.39C53.29,4.121,63.65,7.661,67.23,14.971z"/>
			<path style="fill:#AFC4E2;" d="M64.28,17.361l-0.02,1.19c-0.03,0-0.06,0-0.09,0c-7.95,0-15.12,1.13-21.24,2.71l-0.1-0.39
				l2.34-2.82l-1.05-0.87c5.56-1.29,11.87-2.19,18.79-2.29C63.48,15.661,63.95,16.481,64.28,17.361z"/>
			<path style="fill:#F1F9FC;" d="M52.78,7.871c2.24,0.91,7.35,3.29,10.13,7.02c-6.92,0.1-13.23,1-18.79,2.29l-2.2-1.84
				C44.85,13.911,49.51,11.291,52.78,7.871z"/>
			<path style="fill:#AFC4E2;" d="M45.17,18.051l-2.34,2.82l-3.08-2.57c1.4-0.4,2.85-0.78,4.37-1.12L45.17,18.051z"/>
		</g>
	</g>
	<g id="XMLID_1_">
		<path style="fill:#257BD2;" d="M97.33,28.381c1.02,0,1.84,0.82,1.84,1.83c0,1.02-0.82,1.84-1.84,1.84c-1.01,0-1.83-0.82-1.83-1.84
			C95.5,29.201,96.32,28.381,97.33,28.381z"/>
		<path style="fill:#257BD2;" d="M90.31,42.931c0.11,0.14,0.22,0.26,0.34,0.38l-1.3,1.3c-0.27-0.27-0.52-0.56-0.77-0.89
			C89.17,43.461,89.74,43.201,90.31,42.931z"/>
		<path style="fill:#257BD2;" d="M89.41,19.431l1.18,1.4c-0.12,0.1-0.24,0.21-0.35,0.32c-0.58-0.26-1.17-0.53-1.77-0.79
			C88.75,20.021,89.07,19.711,89.41,19.431z"/>
		<path style="fill:#257BD2;" d="M77.17,37.551v1.83c-0.96,0-2.63,1.29-4.25,2.54c-0.84,0.64-1.7,1.3-2.58,1.89
			c-0.59,0.39-1.41,0.56-2.36,0.56c-3.31,0-8.17-2.06-10.08-3.97c-1.62-1.62-1.06-2.89-0.75-3.36c1.27-1.9,5.26-2.57,9.49-3.27
			c2.62-0.44,5.34-0.89,6.35-1.57l1.02,1.53c-1.34,0.89-4,1.33-7.07,1.85c-3.14,0.52-7.43,1.23-8.26,2.47
			c-0.19,0.29,0.3,0.84,0.52,1.06c2.22,2.22,8.57,4.21,10.12,3.17c0.83-0.55,1.67-1.19,2.48-1.82
			C73.83,38.901,75.59,37.551,77.17,37.551z"/>
		<path style="fill:#257BD2;stroke:#F1F9FC;stroke-miterlimit:10;" d="M69.23,11.971c-3.58-7.31-13.94-10.85-14.4-11l-1.19-0.39
			l-0.8,0.96c-4.22,5.07-12.93,8.6-13.02,8.64l-2.85,1.14l4.78,3.98c-13.39,3.8-21.42,9.41-21.42,9.41s-9.16-5.5-18.33-5.5
			c4.58,11,4.58,14.67,0,26.59l18.33-7.34c0,0,18.34,13.75,45.84,13.75c9.02,0,17.06-2.17,23.79-5.09
			c13.77-5.97,22.04-15.07,22.04-15.07S95.02,13.371,69.23,11.971z"/>
		<path style="fill:#F1F9FC;" d="M88.47,20.361c-2.46,2.84-3.03,7.25-3.15,9.79c-0.24,5.38,1.05,10.63,3.26,13.57
			c-6.35,2.76-13.92,4.83-22.41,4.83c-25.85,0-43.47-12.89-43.64-13.02l-1.65-1.24l-1.91,0.77l-10.95,4.38
			c1.58-5.85,1.43-10.08-0.46-15.88c5.9,1.36,10.83,4.26,10.89,4.3l2.03,1.21l1.95-1.35c0.12-0.08,8.64-5.9,22.5-9.46
			c6.12-1.58,13.29-2.71,21.24-2.71c0.03,0,0.06,0,0.09,0C74.65,15.561,82.16,17.611,88.47,20.361z M77.17,39.381v-1.83
			c-1.58,0-3.34,1.35-5.37,2.91c-0.81,0.63-1.65,1.27-2.48,1.82c-1.55,1.04-7.9-0.95-10.12-3.17c-0.22-0.22-0.71-0.77-0.52-1.06
			c0.83-1.24,5.12-1.95,8.26-2.47c3.07-0.52,5.73-0.96,7.07-1.85l-1.02-1.53c-1.01,0.68-3.73,1.13-6.35,1.57
			c-4.23,0.7-8.22,1.37-9.49,3.27c-0.31,0.47-0.87,1.74,0.75,3.36c1.91,1.91,6.77,3.97,10.08,3.97c0.95,0,1.77-0.17,2.36-0.56
			c0.88-0.59,1.74-1.25,2.58-1.89C74.54,40.671,76.21,39.381,77.17,39.381z"/>
		<path style="fill:#F1F9FC;" d="M106.72,32.051c-3.06,2.75-8.75,7.27-16.41,10.88c-2.1-2.47-3.39-7.58-3.16-12.7
			c0.19-4.06,1.3-7.32,3.09-9.08C97.93,24.781,103.64,29.311,106.72,32.051z M99.17,30.211c0-1.01-0.82-1.83-1.84-1.83
			c-1.01,0-1.83,0.82-1.83,1.83c0,1.02,0.82,1.84,1.83,1.84C98.35,32.051,99.17,31.231,99.17,30.211z"/>
		<path style="fill:#F1F9FC;" d="M54.78,4.871c2.24,0.91,7.35,3.29,10.13,7.02c-6.92,0.1-13.23,1-18.79,2.29l-2.2-1.84
			C46.85,10.911,51.51,8.291,54.78,4.871z"/>
	</g>
</g>
<g id="Layer_1">
</g>
</svg>
