<?xml version="1.0" encoding="iso-8859-1"?>
<!-- Generator: Adobe Illustrator 17.0.2, SVG Export Plug-In . SVG Version: 6.00 Build 0)  -->
<!DOCTYPE svg PUBLIC "-//W3C//DTD SVG 1.1//EN" "http://www.w3.org/Graphics/SVG/1.1/DTD/svg11.dtd">
<svg version="1.1" xmlns="http://www.w3.org/2000/svg" xmlns:xlink="http://www.w3.org/1999/xlink" x="0px" y="0px"
	 width="33.063px" height="51px" viewBox="0 0 33.063 51" style="enable-background:new 0 0 33.063 51;" xml:space="preserve">
<g id="home-fishscale-white">
	<g>
		<path style="fill:#F1F9FC;" d="M21.559,4.825l-3.081-3.779c-0.554-0.679-1.346-1.072-2.16-1.045
			c-0.821,0.015-1.596,0.427-2.127,1.129l-2.832,3.748C4.771,7.057,0,13.262,0,20.569c0,4.892,2.148,9.28,5.536,12.31v4.85
			c0,1.359,1.106,2.465,2.465,2.465h7.335v1.091c0,0.187-0.103,0.302-0.112,0.311c-0.779,0.741-2.126,2.042-2.398,2.437
			c-0.412,0.6-0.622,1.379-0.622,2.316c0,2.565,2.087,4.652,4.652,4.652c2.565,0,4.652-2.087,4.652-4.652
			c0-0.583-0.473-1.056-1.056-1.056c-0.583,0-1.056,0.473-1.056,1.056c0,1.4-1.139,2.539-2.539,2.539
			c-1.4,0-2.539-1.139-2.539-2.539c0-0.501,0.084-0.878,0.24-1.105c0.171-0.223,1.235-1.273,2.097-2.093
			c0.081-0.072,0.794-0.739,0.794-1.866v-1.091h8.102c1.359,0,2.465-1.106,2.465-2.465v-5.294c3.106-3.007,5.047-7.211,5.047-11.866
			C33.063,13.207,28.223,6.959,21.559,4.825z M16.213,2.659c0.067-0.089,0.129-0.123,0.151-0.123c0,0,0,0,0,0
			c0.022,0,0.081,0.031,0.148,0.112l1.181,1.449c-0.386-0.027-0.77-0.059-1.163-0.059c-0.477,0-0.947,0.032-1.414,0.072
			L16.213,2.659z M25.48,37.659H8.071v-2.914c2.479,1.485,5.367,2.355,8.46,2.355c3.298,0,6.367-0.982,8.949-2.652V37.659z
			 M16.531,34.566c-7.717,0-13.996-6.279-13.996-13.996S8.814,6.573,16.531,6.573c7.718,0,13.996,6.279,13.996,13.996
			S24.249,34.566,16.531,34.566z"/>
		<path style="fill:#F1F9FC;" d="M24.88,13.117c0.248-0.246,0.25-0.648,0.004-0.896c-0.247-0.249-0.648-0.25-0.896-0.003
			l-6.632,6.582c-0.24-0.103-0.505-0.16-0.783-0.16c-1.102,0-1.996,0.893-1.996,1.996c0,0.272,0.055,0.532,0.154,0.768l-1.373,1.362
			c-0.004,0.004-0.005,0.01-0.009,0.014c-0.297-0.164-0.636-0.264-1.003-0.264h-0.059c-0.548,0-1.058,0.209-1.435,0.607
			c-0.377,0.399-0.576,0.886-0.56,1.434c0.032,1.119,0.933,1.959,2.052,1.959h0.059c0.548,0,1.058-0.199,1.434-0.597
			c0.377-0.399,0.576-0.876,0.56-1.424c-0.008-0.288-0.076-0.558-0.188-0.802c0.013-0.011,0.029-0.015,0.042-0.028l1.322-1.312
			c0.295,0.172,0.633,0.278,0.999,0.278c1.102,0,1.996-0.893,1.996-1.996c0-0.36-0.103-0.694-0.27-0.986L24.88,13.117z
			 M12.98,25.076c-0.127,0.134-0.251,0.207-0.42,0.229c-0.176-0.071-0.862-0.374-0.872-0.747c-0.006-0.21-0.059-0.41,0.086-0.562
			c0.144-0.153,0.339-0.24,0.572-0.246c0.428,0,0.805,0.335,0.817,0.763C13.168,24.723,13.124,24.923,12.98,25.076z"/>
		<path style="fill:#F1F9FC;" d="M16.409,12.615c0.35,0,0.634-0.284,0.634-0.634v-2.93c0-0.35-0.284-0.634-0.634-0.634
			s-0.634,0.284-0.634,0.634v2.93C15.775,12.331,16.059,12.615,16.409,12.615z"/>
		<path style="fill:#F1F9FC;" d="M16.409,28.28c-0.35,0-0.634,0.284-0.634,0.634v2.93c0,0.35,0.284,0.634,0.634,0.634
			s0.634-0.284,0.634-0.634v-2.93C17.043,28.564,16.759,28.28,16.409,28.28z"/>
		<path style="fill:#F1F9FC;" d="M27.806,19.813h-2.931c-0.35,0-0.634,0.284-0.634,0.634s0.284,0.634,0.634,0.634h2.931
			c0.35,0,0.634-0.284,0.634-0.634S28.156,19.813,27.806,19.813z"/>
		<path style="fill:#F1F9FC;" d="M8.251,20.447c0-0.35-0.284-0.634-0.634-0.634H4.361c-0.35,0-0.634,0.284-0.634,0.634
			s0.284,0.634,0.634,0.634h3.256C7.967,21.081,8.251,20.797,8.251,20.447z"/>
		<path style="fill:#F1F9FC;" d="M9.975,14.909c0.124,0.124,0.286,0.186,0.448,0.186c0.162,0,0.324-0.062,0.448-0.186
			c0.248-0.248,0.248-0.649,0-0.896l-2.072-2.072c-0.248-0.248-0.649-0.248-0.896,0c-0.248,0.248-0.248,0.649,0,0.896L9.975,14.909z
			"/>
		<path style="fill:#F1F9FC;" d="M22.844,25.986c-0.248-0.248-0.649-0.248-0.896,0c-0.248,0.248-0.248,0.649,0,0.896l2.072,2.072
			c0.124,0.124,0.286,0.186,0.448,0.186s0.325-0.062,0.448-0.186c0.248-0.248,0.248-0.649,0-0.896L22.844,25.986z"/>
		<path style="fill:#F1F9FC;" d="M9.975,25.986l-2.072,2.072c-0.248,0.248-0.248,0.649,0,0.896c0.124,0.124,0.286,0.186,0.448,0.186
			c0.162,0,0.324-0.062,0.448-0.186l2.072-2.072c0.248-0.248,0.248-0.649,0-0.896C10.623,25.738,10.222,25.738,9.975,25.986z"/>
	</g>
</g>
<g id="Layer_1">
</g>
</svg>
