<?xml version="1.0" encoding="iso-8859-1"?>
<!-- Generator: Adobe Illustrator 17.0.2, SVG Export Plug-In . SVG Version: 6.00 Build 0)  -->
<!DOCTYPE svg PUBLIC "-//W3C//DTD SVG 1.1//EN" "http://www.w3.org/Graphics/SVG/1.1/DTD/svg11.dtd">
<svg version="1.1" xmlns="http://www.w3.org/2000/svg" xmlns:xlink="http://www.w3.org/1999/xlink" x="0px" y="0px" width="65px"
	 height="30.512px" viewBox="0 0 65 30.512" style="enable-background:new 0 0 65 30.512;" xml:space="preserve">
<g id="home-species-blue">
	<g>
		<path style="fill:#78A4D1;" d="M37.917,8.845c11.755,0,20.575,6.71,23.964,9.746c-3.398,3.033-12.25,9.754-23.964,9.754
			c-15.275,0-25.683-7.617-25.786-7.694l-0.973-0.724l-1.129,0.448l-6.471,2.588c0.934-3.458,0.844-5.956-0.272-9.385
			c3.497,0.799,6.395,2.518,6.432,2.541l1.206,0.723l1.152-0.806C12.176,15.967,22.603,8.845,37.917,8.845 M37.917,6.678
			c-16.25,0-27.083,7.583-27.083,7.583S5.417,11.012,0,11.012c2.708,6.5,2.708,8.667,0,15.708l10.833-4.333
			c0,0,10.833,8.125,27.083,8.125S65,18.595,65,18.595S54.167,6.678,37.917,6.678L37.917,6.678z"/>
	</g>
	<g>
		<path style="fill:#78A4D1;" d="M51.617,26.02l0.766-0.766c-1.361-1.361-2.21-4.54-2.065-7.732
			c0.116-2.551,0.855-4.575,2.029-5.552l-0.693-0.833c-1.926,1.605-2.341,4.659-2.417,6.336
			C49.076,21.001,50.033,24.435,51.617,26.02z"/>
	</g>
	<g>
		<circle style="fill:#78A4D1;" cx="56.333" cy="17.512" r="1.083"/>
	</g>
	<g>
		<path style="fill:#78A4D1;" d="M38.989,25.877c0.562,0,1.047-0.1,1.394-0.332c0.518-0.345,1.029-0.739,1.523-1.119
			c0.957-0.736,1.946-1.498,2.51-1.498v-1.083c-0.932,0-1.97,0.799-3.171,1.723c-0.48,0.369-0.975,0.751-1.463,1.076
			c-0.921,0.615-4.669-0.562-5.985-1.877c-0.13-0.13-0.419-0.451-0.305-0.622c0.489-0.733,3.028-1.156,4.881-1.465
			c1.816-0.303,3.384-0.564,4.177-1.093l-0.601-0.901c-0.6,0.4-2.203,0.667-3.754,0.926c-2.497,0.416-4.855,0.809-5.605,1.933
			c-0.186,0.279-0.516,1.032,0.441,1.988C34.159,24.66,37.033,25.877,38.989,25.877z"/>
	</g>
	<g>
		<path style="fill:#78A4D1;" d="M25.306,10.219l1.387-1.664l-1.923-1.603c1.732-0.848,4.485-2.391,6.415-4.413
			c1.6,0.651,5.661,2.566,6.8,5.603l2.029-0.761c-1.786-4.762-8.511-7.052-8.797-7.147L30.516,0l-0.473,0.568
			c-2.497,2.996-7.644,5.084-7.695,5.105l-1.685,0.675L25.306,10.219z"/>
	</g>
</g>
<g id="Layer_1">
</g>
</svg>
