<?xml version="1.0" encoding="iso-8859-1"?>
<!-- Generator: Adobe Illustrator 17.0.2, SVG Export Plug-In . SVG Version: 6.00 Build 0)  -->
<!DOCTYPE svg PUBLIC "-//W3C//DTD SVG 1.1//EN" "http://www.w3.org/Graphics/SVG/1.1/DTD/svg11.dtd">
<svg version="1.1" xmlns="http://www.w3.org/2000/svg" xmlns:xlink="http://www.w3.org/1999/xlink" x="0px" y="0px"
	 width="22.153px" height="18px" viewBox="0 0 22.153 18" style="enable-background:new 0 0 22.153 18;" xml:space="preserve">
<g id="twitter">
	<g>
		<path style="fill:#F1F9FC;" d="M22.153,2.121c-0.605,0.915-1.359,1.701-2.261,2.357v0.596c0,1.01-0.128,2.024-0.384,3.045
			c-0.256,1.02-0.624,2.012-1.103,2.974c-0.48,0.962-1.095,1.863-1.844,2.698c-0.75,0.837-1.59,1.567-2.52,2.191
			c-0.931,0.623-2.003,1.116-3.218,1.477C9.607,17.82,8.325,18,6.977,18C4.244,18,1.918,17.383,0,16.15
			c0.332,0.051,0.692,0.076,1.082,0.076c1.01,0,1.997-0.195,2.964-0.584c0.967-0.39,1.857-0.913,2.672-1.568
			c-0.973-0.007-1.852-0.309-2.634-0.904s-1.314-1.346-1.595-2.255c0.303,0.058,0.584,0.087,0.844,0.087
			c0.418,0,0.822-0.055,1.211-0.163c-1.046-0.209-1.915-0.73-2.607-1.562C1.244,8.443,0.898,7.478,0.898,6.383V6.328
			C1.547,6.682,2.232,6.87,2.953,6.891C2.326,6.472,1.83,5.932,1.466,5.268C1.101,4.605,0.92,3.891,0.92,3.127
			c0-0.743,0.206-1.479,0.617-2.207c1.139,1.385,2.517,2.482,4.132,3.293c1.615,0.811,3.357,1.268,5.224,1.368
			c-0.065-0.282-0.097-0.631-0.097-1.049c0-1.254,0.441-2.323,1.325-3.208C13.004,0.442,14.073,0,15.328,0
			c1.29,0,2.405,0.477,3.342,1.428c1.031-0.209,1.986-0.576,2.866-1.103c-0.346,1.095-1.013,1.936-2.001,2.52
			C20.436,2.744,21.309,2.502,22.153,2.121z"/>
	</g>
</g>
<g id="Layer_1">
</g>
</svg>
