<?xml version="1.0" encoding="iso-8859-1"?>
<!-- Generator: Adobe Illustrator 17.0.0, SVG Export Plug-In . SVG Version: 6.00 Build 0)  -->
<!DOCTYPE svg PUBLIC "-//W3C//DTD SVG 1.1//EN" "http://www.w3.org/Graphics/SVG/1.1/DTD/svg11.dtd">
<svg version="1.1" xmlns="http://www.w3.org/2000/svg" xmlns:xlink="http://www.w3.org/1999/xlink" x="0px" y="0px" width="12px"
	 height="29.954px" viewBox="0 0 12 29.954" style="enable-background:new 0 0 12 29.954;" xml:space="preserve">
<g id="business">
	<g>
		<path style="fill:#DBDCF0;" d="M8,6.954c-3,0-1,0-4,0s-4,6-4,9l2,1c0,0,1.943,11.46,2,13h1.5h1H8l2-13l2-1
			C12,12.954,9.683,6.954,8,6.954z M4.905,28.954c-0.377-3.05-1.744-11.135-1.919-12.167l-0.085-0.5L2.447,16.06l-1.435-0.718
			C1.139,12.073,2.252,7.954,4,7.954h0.208L5.5,14.173v14.781H4.905z M9.558,16.06l-0.465,0.231l-0.08,0.511L7.142,28.954H6.5
			V14.173l1.292-6.219H7.98c0.881,0.353,2.754,4.492,3.002,7.396L9.558,16.06z"/>
		<circle style="fill:#DBDCF0;" cx="6" cy="2" r="2"/>
	</g>
</g>
<g id="Layer_1">
</g>
</svg>
